#N canvas 461 144 1075 671 10;
#X obj 153 504 cmeter~;
#X obj 194 436 dac~;
#X msg 21 177 vis \$1;
#X obj 15 114 tgl 15 0 empty empty empty 17 7 0 10 -262144 -1 -1 0
1;
#X msg 81 85 mda Bandisto.dll;
#X msg 57 60 mda Delay.dll;
#X msg 27 36 Ambience.dll;
#X obj 432 43 cplay~;
#X msg 433 9 open patches/soundfiles/Penderecki.wav;
#N canvas 904 61 340 450 params 1;
#X obj 64 65 nbx 5 14 -1e+37 1e+37 0 0 empty empty empty 0 -8 0 10
-262144 -1 -1 0 256;
#X obj 6 64 nbx 5 14 -1e+37 1e+37 0 0 empty empty empty 0 -8 0 10 -262144
-1 -1 0 256;
#X obj 20 90 swap;
#X obj 21 121 pack;
#X msg 21 149 param_set \$1 \$2;
#X obj 150 145 nbx 5 14 -1e+37 1e+37 0 0 empty empty empty 0 -8 0 10
-262144 -1 -1 0 256;
#X msg 148 171 param_getname \$1;
#X msg 152 311 param_count;
#X obj 17 233 s vst;
#X msg 152 344 param_list;
#X msg 146 106 param_get \$1;
#X obj 144 80 nbx 5 14 -1e+37 1e+37 0 0 empty empty empty 0 -8 0 10
-262144 -1 -1 0 256;
#X obj 153 196 nbx 5 14 -1e+37 1e+37 0 0 empty empty empty 0 -8 0 10
-262144 -1 -1 0 256;
#X obj 151 254 nbx 5 14 -1e+37 1e+37 0 0 empty empty empty 0 -8 0 10
-262144 -1 -1 0 256;
#X msg 151 222 param_getlabel \$1;
#X msg 149 280 param_getdisplay \$1;
#X connect 0 0 2 1;
#X connect 1 0 2 0;
#X connect 2 0 3 0;
#X connect 2 1 3 1;
#X connect 3 0 4 0;
#X connect 4 0 8 0;
#X connect 5 0 6 0;
#X connect 6 0 8 0;
#X connect 7 0 8 0;
#X connect 9 0 8 0;
#X connect 10 0 8 0;
#X connect 11 0 10 0;
#X connect 12 0 14 0;
#X connect 13 0 15 0;
#X connect 14 0 8 0;
#X connect 15 0 8 0;
#X restore 13 311 pd params;
#N canvas 870 416 298 284 programs 1;
#X obj 10 34 nbx 5 14 -1e+37 1e+37 0 0 empty empty empty 0 -8 0 10
-262144 -1 -1 0 256;
#X obj 26 250 s vst;
#X msg 45 119 program_get;
#X msg 56 195 program_getname;
#X msg 61 221 program_count;
#X msg 55 169 program_setname \$1;
#X symbolatom 54 143 10 0 0 0 - - -;
#X obj 9 96 t b a;
#X msg 9 60 program_set \$1;
#X msg 69 250 program_list;
#X obj 164 195 nbx 5 14 -1e+37 1e+37 0 0 empty empty empty 0 -8 0 10
-262144 -1 -1 0 256;
#X msg 162 221 program_getname \$1;
#X connect 0 0 8 0;
#X connect 2 0 1 0;
#X connect 3 0 1 0;
#X connect 4 0 1 0;
#X connect 5 0 1 0;
#X connect 6 0 5 0;
#X connect 7 0 3 0;
#X connect 7 1 1 0;
#X connect 8 0 7 0;
#X connect 9 0 1 0;
#X connect 10 0 11 0;
#X connect 11 0 1 0;
#X restore 12 340 pd programs;
#X obj 83 213 s vst;
#X msg 336 191 bypass \$1;
#X obj 337 166 tgl 15 0 empty empty empty 17 7 0 10 -262144 -1 -1 0
1;
#X obj 172 280 r vst;
#X msg 18 214 version;
#X msg 95 111 DualDelay_win32.dll;
#X text 368 477 NOTES:;
#X text 365 497 1) think about sample accurate automation (add additional
inlet~s as busses which can be associated with parameters);
#X text 363 531 2) editor should reflect manual parameter changes;
#X text 361 557 3) check thread synchronization;
#X text 362 582 4) editor window menu!;
#X text 360 606 5) MIDI handling;
#X text 359 633 6) preset management;
#X text 545 185 PRIORITIES:;
#X text 545 281 4) super collider;
#X text 545 212 1) "vollständige" VST2 implementierung;
#X text 547 233 2) VST3;
#X text 547 256 3) cross platform;
#X text 674 258 Ende Oktober;
#X msg 83 175 open ./testplugins/\$1;
#X obj 243 345 print;
#X msg 228 176 close;
#X obj 83 154 l2s;
#X msg 113 138 Voxengo/OldSkoolVerb Plus.dll;
#X msg 203 60 FdnReverb_win32.dll;
#X msg 220 81 RoomEncoder_win32.dll;
#X msg 228 106 SimpleDecoder_win32.dll;
#X msg 183 6 NastyDLAmkII.dll;
#X msg 191 34 BaxterEQ.dll;
#X obj 432 386 vsthost~ 2 2;
#X obj 431 342 r vst;
#X obj 431 363 spigot;
#X obj 471 342 tgl 15 0 empty empty empty 17 7 0 10 -262144 -1 -1 1
1;
#X obj 506 410 print B;
#X msg 22 133 1;
#X msg 29 153 0;
#X obj 683 76 hsl 128 15 0 127 0 0 foo foo empty -2 -8 0 10 -262144
-1 -1 0 1;
#X obj 681 109 nbx 5 14 -1e+37 1e+37 0 0 foo foo empty 0 -8 0 10 -262144
-1 -1 0 256;
#X obj 781 153 r foo;
#X obj 781 174 print FOO;
#X obj 656 407 vsthost~ -g 2 2;
#X msg 652 382 open ./testplugins/Ambience.dll;
#X msg 603 382 vis \$1;
#X obj 603 361 tgl 15 0 empty empty empty 17 7 0 10 -262144 -1 -1 0
1;
#X msg 10 14 ambix_encoder_i2_o3.dll;
#X obj 173 317 vsthost~ -g 2 2;
#X obj 899 66 r foo;
#X obj 898 143 s foo;
#X msg 898 122 set \$1;
#X obj 899 87 route float;
#X obj 648 318 hsl 128 15 0 127 0 0 empty empty abcdefabcdefabcdefabcdefabcdefabcdefabcdefabcdefabcdefabcdefabcdef
-2 -8 0 10 -262144 -1 -1 0 1;
#X msg 356 234 bang;
#X obj 356 257 del 0;
#X obj 356 280 openpanel;
#X msg 356 333 open \$1;
#X obj 356 306 symbol;
#X msg 402 305 bang;
#X obj 356 356 s vst;
#X connect 2 0 11 0;
#X connect 3 0 2 0;
#X connect 4 0 33 0;
#X connect 5 0 33 0;
#X connect 6 0 33 0;
#X connect 7 0 56 0;
#X connect 7 1 56 1;
#X connect 8 0 7 0;
#X connect 12 0 11 0;
#X connect 13 0 12 0;
#X connect 14 0 56 0;
#X connect 15 0 11 0;
#X connect 16 0 33 0;
#X connect 30 0 11 0;
#X connect 32 0 11 0;
#X connect 33 0 30 0;
#X connect 34 0 33 0;
#X connect 35 0 33 0;
#X connect 36 0 33 0;
#X connect 37 0 33 0;
#X connect 38 0 33 0;
#X connect 39 0 33 0;
#X connect 40 2 44 0;
#X connect 41 0 42 0;
#X connect 42 0 40 0;
#X connect 43 0 42 1;
#X connect 45 0 2 0;
#X connect 46 0 2 0;
#X connect 49 0 50 0;
#X connect 52 0 51 0;
#X connect 53 0 51 0;
#X connect 54 0 53 0;
#X connect 55 0 33 0;
#X connect 56 0 0 0;
#X connect 56 0 1 0;
#X connect 56 1 0 1;
#X connect 56 1 1 1;
#X connect 56 2 31 0;
#X connect 57 0 60 0;
#X connect 59 0 58 0;
#X connect 60 0 59 0;
#X connect 62 0 63 0;
#X connect 63 0 64 0;
#X connect 64 0 66 0;
#X connect 65 0 68 0;
#X connect 66 0 65 0;
#X connect 67 0 66 0;
