#N canvas 512 193 1075 671 10;
#X declare -path testplugins;
#X obj 153 504 cmeter~;
#X obj 181 468 dac~;
#X msg 24 275 vis \$1;
#X obj 18 212 tgl 15 0 empty empty empty 17 7 0 10 -262144 -1 -1 0
1;
#X obj 432 43 cplay~;
#X msg 433 9 open patches/soundfiles/Penderecki.wav;
#N canvas 1029 49 340 222 params 1;
#X obj 64 65 nbx 5 14 -1e+037 1e+037 0 0 empty empty empty 0 -8 0 10
-262144 -1 -1 1 256;
#X obj 6 64 nbx 5 14 -1e+037 1e+037 0 0 empty empty empty 0 -8 0 10
-262144 -1 -1 0.7 256;
#X obj 20 90 swap;
#X obj 21 121 pack;
#X msg 21 149 param_set \$1 \$2;
#X obj 150 145 nbx 5 14 -1e+037 1e+037 0 0 empty empty empty 0 -8 0
10 -262144 -1 -1 0 256;
#X msg 152 311 param_count;
#X obj 17 233 s vst;
#X msg 152 344 param_list;
#X msg 146 106 param_get \$1;
#X obj 144 80 nbx 5 14 -1e+037 1e+037 0 0 empty empty empty 0 -8 0
10 -262144 -1 -1 0 256;
#X obj 153 196 nbx 5 14 -1e+037 1e+037 0 0 empty empty empty 0 -8 0
10 -262144 -1 -1 0 256;
#X obj 151 254 nbx 5 14 -1e+037 1e+037 0 0 empty empty empty 0 -8 0
10 -262144 -1 -1 0 256;
#X msg 149 171 param_name \$1;
#X msg 151 222 param_label \$1;
#X msg 149 280 param_display \$1;
#X msg 153 374 param_dump;
#X connect 0 0 2 1;
#X connect 1 0 2 0;
#X connect 2 0 3 0;
#X connect 2 1 3 1;
#X connect 3 0 4 0;
#X connect 4 0 7 0;
#X connect 5 0 13 0;
#X connect 6 0 7 0;
#X connect 8 0 7 0;
#X connect 9 0 7 0;
#X connect 10 0 9 0;
#X connect 11 0 14 0;
#X connect 12 0 15 0;
#X connect 13 0 7 0;
#X connect 14 0 7 0;
#X connect 15 0 7 0;
#X connect 16 0 7 0;
#X restore 16 409 pd params;
#N canvas 659 31 298 306 programs 0;
#X obj 10 34 nbx 5 14 -1e+037 1e+037 0 0 empty empty empty 0 -8 0 10
-262144 -1 -1 0 256;
#X obj 26 250 s vst;
#X msg 45 119 program_get;
#X msg 61 221 program_count;
#X msg 55 169 program_setname \$1;
#X symbolatom 54 143 10 0 0 0 - - -;
#X obj 9 96 t b a;
#X msg 9 60 program_set \$1;
#X msg 69 250 program_list;
#X obj 164 195 nbx 5 14 -1e+037 1e+037 0 0 empty empty empty 0 -8 0
10 -262144 -1 -1 0 256;
#X msg 56 195 program_name;
#X msg 162 220 program_name \$1;
#X connect 0 0 7 0;
#X connect 2 0 1 0;
#X connect 3 0 1 0;
#X connect 4 0 1 0;
#X connect 5 0 4 0;
#X connect 6 0 10 0;
#X connect 6 1 1 0;
#X connect 7 0 6 0;
#X connect 8 0 1 0;
#X connect 9 0 11 0;
#X connect 10 0 1 0;
#X connect 11 0 1 0;
#X restore 15 438 pd programs;
#X obj 88 329 s vst;
#X msg 183 346 bypass \$1;
#X obj 184 321 tgl 15 0 empty empty empty 17 7 0 10 -262144 -1 -1 0
1;
#X obj 175 378 r vst;
#X msg 21 312 version;
#X text 368 477 NOTES:;
#X text 365 497 1) think about sample accurate automation (add additional
inlet~s as busses which can be associated with parameters);
#X text 363 531 2) editor should reflect manual parameter changes;
#X text 361 557 3) check thread synchronization;
#X text 362 582 4) editor window menu!;
#X text 360 606 5) MIDI handling;
#X text 359 633 6) preset management;
#X text 545 185 PRIORITIES:;
#X text 545 281 4) super collider;
#X text 545 212 1) "vollständige" VST2 implementierung;
#X text 547 233 2) VST3;
#X text 547 256 3) cross platform;
#X text 674 258 Ende Oktober;
#X obj 246 443 print;
#X msg 98 305 close;
#X obj 432 386 vsthost~ 2 2;
#X obj 431 342 r vst;
#X obj 431 363 spigot;
#X obj 471 342 tgl 15 0 empty empty empty 17 7 0 10 -262144 -1 -1 1
1;
#X obj 506 410 print B;
#X msg 25 231 1;
#X msg 32 251 0;
#X obj 683 76 hsl 128 15 0 127 0 0 foo foo empty -2 -8 0 10 -262144
-1 -1 0 1;
#X obj 681 109 nbx 5 14 -1e+37 1e+37 0 0 foo foo empty 0 -8 0 10 -262144
-1 -1 0 256;
#X obj 781 153 r foo;
#X obj 781 174 print FOO;
#X msg 603 382 vis \$1;
#X obj 603 361 tgl 15 0 empty empty empty 17 7 0 10 -262144 -1 -1 0
1;
#X msg 17 29 ambix_encoder_i2_o3.dll;
#X obj 899 66 r foo;
#X obj 898 143 s foo;
#X msg 898 122 set \$1;
#X obj 899 87 route float;
#X text 865 219 destroy canvas in free method;
#X text 868 237 clip param value!;
#X text 870 196 TODO:;
#X text 869 262 extension optional;
#X text 869 283 get plugin name;
#X text 868 306 reflect Plugin Name in GUI window;
#X text 869 325 set Icon;
#X msg 80 361 precision \$1;
#X obj 56 361 tgl 15 0 empty empty empty 17 7 0 10 -262144 -1 -1 0
1;
#X msg 138 331 info;
#X msg 1 72 Ambience;
#X obj 699 9 declare -path testplugins;
#X msg 90 281 open \$1 \, info;
#X msg 65 71 mda Delay;
#X msg 80 92 mda Bandisto;
#X msg 94 118 DualDelay_win32;
#X msg 112 144 Voxengo/OldSkoolVerb Plus;
#X msg 231 100 SimpleDecoder_win32;
#X msg 223 76 RoomEncoder_win32;
#X msg 206 55 FdnReverb_win32;
#X msg 198 28 BaxterEQ;
#X msg 197 7 NastyDLAmkII;
#X msg 35 48 Transient;
#X msg 9 4 ambix_binaural_o3;
#X obj 90 252 l2s;
#X msg 166 171 64bit/Voxengo/OldSkoolVerb Plus;
#X msg 170 193 64bit/Test;
#X msg 174 213 64bit/DualDelay_x64;
#X msg 179 234 64bit/FdnReverb_x64;
#X msg 184 254 64bit/EnergyVisualizer_x64;
#X msg 187 279 64bit/AllRaDecoder_x64;
#X msg 198 301 64bit/StereoEncoder_x64;
#X msg 653 381 open 64bit/AllRaDecoder_x64;
#X obj 656 406 vsthost~;
#X obj 175 412 vsthost~;
#X connect 2 0 8 0;
#X connect 3 0 2 0;
#X connect 4 0 80 0;
#X connect 4 1 80 1;
#X connect 5 0 4 0;
#X connect 9 0 8 0;
#X connect 10 0 9 0;
#X connect 11 0 80 0;
#X connect 12 0 8 0;
#X connect 27 0 8 0;
#X connect 28 2 32 0;
#X connect 29 0 30 0;
#X connect 30 0 28 0;
#X connect 31 0 30 1;
#X connect 33 0 2 0;
#X connect 34 0 2 0;
#X connect 37 0 38 0;
#X connect 39 0 79 0;
#X connect 40 0 39 0;
#X connect 41 0 70 0;
#X connect 42 0 45 0;
#X connect 44 0 43 0;
#X connect 45 0 44 0;
#X connect 53 0 8 0;
#X connect 54 0 53 0;
#X connect 55 0 8 0;
#X connect 56 0 70 0;
#X connect 58 0 8 0;
#X connect 59 0 70 0;
#X connect 60 0 70 0;
#X connect 61 0 70 0;
#X connect 62 0 70 0;
#X connect 63 0 70 0;
#X connect 64 0 70 0;
#X connect 65 0 70 0;
#X connect 66 0 70 0;
#X connect 67 0 70 0;
#X connect 68 0 70 0;
#X connect 69 0 70 0;
#X connect 70 0 58 0;
#X connect 71 0 70 0;
#X connect 72 0 70 0;
#X connect 73 0 70 0;
#X connect 74 0 70 0;
#X connect 75 0 70 0;
#X connect 76 0 70 0;
#X connect 77 0 70 0;
#X connect 78 0 79 0;
#X connect 80 0 0 0;
#X connect 80 0 1 0;
#X connect 80 1 0 1;
#X connect 80 1 1 1;
#X connect 80 2 26 0;
