#N canvas 776 96 639 671 10;
#X obj 83 147 l2s;
#X msg 83 175 open ./\$1;
#X obj 156 429 cmeter~;
#X obj 186 373 dac~;
#X msg 21 177 vis \$1;
#X obj 23 154 tgl 15 0 empty empty empty 17 7 0 10 -262144 -1 -1 0
1;
#X msg 82 123 mda Bandisto.dll;
#X msg 58 98 mda Delay.dll;
#X obj 173 317 vsthost~;
#X msg 28 74 Ambience.dll;
#X obj 235 343 print;
#X obj 352 78 cplay~;
#X msg 353 44 open patches/soundfiles/Penderecki.wav;
#N canvas 228 277 450 300 params 1;
#X obj 145 30 nbx 5 14 -1e+037 1e+037 0 0 empty empty empty 0 -8 0
10 -262144 -1 -1 0 256;
#X obj 64 25 nbx 5 14 -1e+037 1e+037 0 0 empty empty empty 0 -8 0 10
-262144 -1 -1 0 256;
#X obj 6 24 nbx 5 14 -1e+037 1e+037 0 0 empty empty empty 0 -8 0 10
-262144 -1 -1 0 256;
#X obj 20 50 swap;
#X obj 20 71 pack;
#X msg 20 99 param_set \$1 \$2;
#X msg 143 57 param_get \$1;
#X obj 149 95 nbx 5 14 -1e+037 1e+037 0 0 empty empty empty 0 -8 0
10 -262144 -1 -1 0 256;
#X msg 147 121 param_getname \$1;
#X msg 153 152 param_count;
#X obj 16 183 s vst;
#X msg 153 185 param_list;
#X connect 0 0 6 0;
#X connect 1 0 3 1;
#X connect 2 0 3 0;
#X connect 3 0 4 0;
#X connect 3 1 4 1;
#X connect 4 0 5 0;
#X connect 5 0 10 0;
#X connect 6 0 10 0;
#X connect 7 0 8 0;
#X connect 8 0 10 0;
#X connect 9 0 10 0;
#X connect 11 0 10 0;
#X restore 13 311 pd params;
#N canvas 327 437 298 255 programs 1;
#X obj 6 6 nbx 5 14 -1e+037 1e+037 0 0 empty empty empty 0 -8 0 10
-262144 -1 -1 0 256;
#X obj 24 205 s vst;
#X msg 43 74 program_get;
#X msg 54 150 program_getname;
#X msg 59 176 program_count;
#X msg 53 124 program_setname \$1;
#X symbolatom 52 98 10 0 0 0 - - -, f 10;
#X obj 7 51 t b a;
#X msg 7 30 program_set \$1;
#X connect 0 0 8 0;
#X connect 2 0 1 0;
#X connect 3 0 1 0;
#X connect 4 0 1 0;
#X connect 5 0 1 0;
#X connect 6 0 5 0;
#X connect 7 0 3 0;
#X connect 7 1 1 0;
#X connect 8 0 7 0;
#X restore 12 340 pd programs;
#X obj 83 213 s vst;
#X msg 153 179 bypass \$1;
#X obj 154 154 tgl 15 0 empty empty empty 17 7 0 10 -262144 -1 -1 0
1;
#X obj 172 280 r vst;
#X msg 18 214 version;
#X connect 0 0 1 0;
#X connect 1 0 15 0;
#X connect 4 0 15 0;
#X connect 5 0 4 0;
#X connect 6 0 0 0;
#X connect 7 0 0 0;
#X connect 8 0 2 0;
#X connect 8 0 3 0;
#X connect 8 1 3 1;
#X connect 8 1 2 1;
#X connect 8 2 10 0;
#X connect 9 0 0 0;
#X connect 11 0 8 0;
#X connect 11 1 8 1;
#X connect 12 0 11 0;
#X connect 16 0 15 0;
#X connect 17 0 16 0;
#X connect 18 0 8 0;
#X connect 19 0 15 0;
