#N canvas 580 85 520 628 12;
#X obj 39 226 noise~;
#X obj 39 250 *~ 0.5;
#X obj 111 227 noise~;
#X obj 111 251 *~ 0.25;
#X obj 40 415 env~;
#X floatatom 40 439 5 0 0 0 - - - 0;
#X obj 103 416 env~;
#X floatatom 103 440 5 0 0 0 - - - 0;
#X obj 29 29 cnv 15 165 25 empty empty empty 20 12 0 14 #e0e0e0 #404040 0;
#X text 36 33 Multichannel support:;
#X obj 40 389 snake~ out 4, f 28;
#X obj 181 226 noise~;
#X obj 252 225 noise~;
#X obj 39 275 snake~ in 4, f 31;
#X obj 181 250 *~ 0.1;
#X obj 252 249 *~ 0.05;
#X obj 169 418 env~;
#X floatatom 169 442 5 0 0 0 - - - 0;
#X obj 233 417 env~;
#X floatatom 233 441 5 0 0 0 - - - 0;
#X obj 40 359 vstplugin~ -m 4 4;
#X text 32 102 The number of input channels is not really important since it will be automatically deduced from the input signal.;
#X msg 55 330 channels \$1;
#X floatatom 55 304 5 0 4 0 - - - 0;
#X text 151 308 Dynamically change the number of output channels.;
#X obj 147 329 cnv 15 45 20 empty empty empty 20 12 0 14 #f8fc00 #404040 0;
#X text 152 330 NOTE: This may cause a DSP graph update!, f 42;
#X text 34 196 Example: 4 input channels + 4 output channels;
#X text 34 475 With multiple input/output busses \, every input and output bus is represented by a single (multichannel) signal inlet/outlet., f 62;
#X text 33 65 The -m flag enables multichannel mode where input and output channels are represented by multichannel signals., f 61;
#X text 32 136 The number of output channels \, however \, must be specified explicitly \, either with a creation argument or dynamically with the "channels" method.;
#X text 35 546 single channel:;
#X text 48 578 multichannel:;
#X text 34 515 Example: 2 input and 2 output busses with 8 channels each;
#X obj 149 546 vstplugin~ -i 2 8 8 -o 2 8 8;
#X f 40;
#X obj 148 577 vstplugin~ -m -i 2 8 8 -o 2 8 8;
#X connect 0 0 1 0;
#X connect 1 0 13 0;
#X connect 2 0 3 0;
#X connect 3 0 13 1;
#X connect 4 0 5 0;
#X connect 6 0 7 0;
#X connect 10 0 4 0;
#X connect 10 1 6 0;
#X connect 10 2 16 0;
#X connect 10 3 18 0;
#X connect 11 0 14 0;
#X connect 12 0 15 0;
#X connect 13 0 20 0;
#X connect 14 0 13 2;
#X connect 15 0 13 3;
#X connect 16 0 17 0;
#X connect 18 0 19 0;
#X connect 20 0 10 0;
#X connect 22 0 20 0;
#X connect 23 0 22 0;
