#N canvas 531 96 591 561 10;
#X obj 107 127 bng 15 250 50 0 \$0-plugins-show empty show plug-ins
18 7 0 10 -257985 -1 -1;
#X obj 107 147 bng 15 250 50 0 \$0-search empty search VST directories
18 7 0 10 -191407 -1 -1;
#X obj 107 167 bng 15 250 50 0 \$0-search-dir empty search user directory
18 7 0 10 -228856 -1 -1;
#X obj 107 187 bng 15 250 50 0 \$0-file empty search plug-in file
18 7 0 10 -262144 -1 -1;
#X obj 107 249 tgl 15 0 \$0-editor \$0-editor editor 18 7 0 10 -262144
-1 -1 1 1;
#X obj 101 101 cnv 15 182 20 empty empty vstpluginbrowser 5 10 0 14
-228856 -99865 0;
#X obj 233 228 bng 15 250 50 0 \$0-open empty open 18 7 0 10 -4034
-1 -1;
#X symbolatom 107 228 20 0 0 0 - #0-path #0-path-out;
#N canvas 241 280 450 376 \$0-open 0;
#X obj 51 330 outlet;
#X obj 211 8 r \$0-file;
#X obj 51 5 r \$0-open;
#X obj 211 29 openpanel;
#X obj 51 147 list prepend;
#X obj 51 308 list trim;
#X obj 120 99 sel 1 0;
#X obj 120 7 r \$0-path-out;
#X obj 51 67 symbol;
#X obj 120 28 route bang;
#X msg 120 50 symbol;
#X obj 211 50 s \$0-path;
#X obj 120 77 r \$0-editor;
#X msg 120 123 -e;
#X obj 51 197 list prepend;
#X obj 151 152 sel 1 0;
#X msg 151 176 -t;
#X obj 151 130 r \$0-threaded;
#X obj 51 285 list prepend open;
#X obj 51 233 list prepend;
#X obj 212 158 r \$0-mode;
#X obj 147 237 r \$0-async;
#X obj 51 260 list append;
#X obj 212 180 sel 0 1 2;
#X msg 214 203 -p;
#X msg 245 204 -b;
#X connect 1 0 3 0;
#X connect 2 0 8 0;
#X connect 3 0 11 0;
#X connect 4 0 14 0;
#X connect 5 0 0 0;
#X connect 6 0 13 0;
#X connect 6 1 4 1;
#X connect 7 0 9 0;
#X connect 8 0 4 0;
#X connect 9 0 10 0;
#X connect 9 1 8 1;
#X connect 10 0 8 1;
#X connect 12 0 6 0;
#X connect 13 0 4 1;
#X connect 14 0 19 0;
#X connect 15 0 16 0;
#X connect 15 1 14 1;
#X connect 16 0 14 1;
#X connect 17 0 15 0;
#X connect 18 0 5 0;
#X connect 19 0 22 0;
#X connect 20 0 23 0;
#X connect 21 0 22 1;
#X connect 22 0 18 0;
#X connect 23 0 19 1;
#X connect 23 1 24 0;
#X connect 23 2 25 0;
#X connect 24 0 19 1;
#X connect 25 0 19 1;
#X restore 100 400 pd \$0-open;
#X obj 100 442 outlet;
#N canvas 742 179 684 612 \$0-search 0;
#X obj 46 36 r \$0-search;
#X obj 46 83 list trim;
#X obj 19 30 bng 15 250 50 0 empty empty empty 17 7 0 10 -262144 -1
-1;
#X obj 186 224 list prepend info;
#X obj 186 245 list trim;
#X msg 253 119 clear;
#X obj 245 444 text define \$0-info;
#X obj 260 160 s \$0-info;
#X obj 80 424 text set \$0-info 1e+007;
#X msg 265 52 vis 1;
#X obj 265 75 s pd-\$0-plugins;
#X obj 265 30 r \$0-plugins-show;
#X obj 190 65 loadbang;
#X msg 190 114 symbol;
#X obj 190 135 s \$0-path;
#X obj 46 57 list prepend search -a;
#X obj 46 159 route search_done info plugin;
#X obj 190 90 t b b;
#X obj 252 140 s pd-\$0-plugin-list;
#X obj 245 488 text define \$0-filtered;
#N canvas 764 127 485 641 \$0-filter 0;
#X obj 58 167 text sequence \$0-info;
#X msg 58 143 line 0 \, bang;
#X obj 223 38 s \$0-filtered;
#X msg 223 17 clear;
#X obj 39 10 r \$0-filter;
#X obj 39 98 t b b b;
#X text 125 581 update scroll view;
#X obj 204 86 s \$0-select;
#X msg 204 62 -1;
#N canvas 792 107 676 594 \$0-filter-vendor 0;
#X obj 52 220 - 1;
#X obj 52 241 max 0;
#X obj 41 319 loadbang;
#X msg 41 340 0;
#X obj 286 281 + 1;
#X obj 286 302 min;
#X obj 286 232 t b b;
#X obj 54 35 text define \$0-filter-vendor-list;
#X obj 55 58 v \$0-filter-vendor;
#X obj 100 125 r \$0-filter-vendor-minus;
#X obj 288 139 r \$0-filter-vendor-plus;
#X obj 316 281 text size \$0-filter-vendor-list;
#X obj 286 256 v \$0-filter-vendor;
#X obj 51 196 v \$0-filter-vendor;
#X obj 62 400 moses 1;
#X msg 62 470 symbol All;
#X obj 103 318 r \$0-filter-vendor;
#X obj 101 448 text get \$0-filter-vendor-list;
#X obj 62 495 s \$0-filter-vendor-label;
#X obj 101 424 - 1;
#X obj 287 52 r \$0-filter-vendor-reset;
#X msg 287 73 0;
#X obj 131 409 s \$0-filter;
#X obj 129 368 spigot;
#X obj 162 342 r \$0-filter-enable;
#X obj 286 327 s \$0-filter-vendor;
#X obj 287 94 s \$0-filter-vendor;
#X obj 52 262 s \$0-filter-vendor;
#X obj 294 28 r \$0-filter-vendor-all;
#X obj 51 97 r \$0-filter-vendor-minus-page;
#X obj 100 146 t b b;
#X obj 51 118 t b b;
#X obj 343 168 r \$0-filter-vendor-plus-page;
#X obj 288 160 t b b;
#X obj 343 189 t b b;
#X msg 312 182 1;
#X msg 368 210 10;
#X msg 68 144 10;
#X msg 126 169 1;
#X obj 103 341 t f b;
#X obj 129 389 del 0;
#X connect 0 0 1 0;
#X connect 1 0 27 0;
#X connect 2 0 3 0;
#X connect 3 0 14 0;
#X connect 4 0 5 0;
#X connect 5 0 25 0;
#X connect 6 0 12 0;
#X connect 6 1 11 0;
#X connect 9 0 30 0;
#X connect 10 0 33 0;
#X connect 11 0 5 1;
#X connect 12 0 4 0;
#X connect 13 0 0 0;
#X connect 14 0 15 0;
#X connect 14 1 19 0;
#X connect 15 0 18 0;
#X connect 16 0 39 0;
#X connect 17 0 18 0;
#X connect 19 0 17 0;
#X connect 20 0 21 0;
#X connect 21 0 26 0;
#X connect 23 0 40 0;
#X connect 24 0 23 1;
#X connect 28 0 21 0;
#X connect 29 0 31 0;
#X connect 30 0 13 0;
#X connect 30 1 38 0;
#X connect 31 0 13 0;
#X connect 31 1 37 0;
#X connect 32 0 34 0;
#X connect 33 0 6 0;
#X connect 33 1 35 0;
#X connect 34 0 6 0;
#X connect 34 1 36 0;
#X connect 35 0 4 1;
#X connect 36 0 4 1;
#X connect 37 0 0 1;
#X connect 38 0 0 1;
#X connect 39 0 14 0;
#X connect 39 1 23 0;
#X connect 40 0 22 0;
#X restore 210 193 pd \$0-filter-vendor;
#N canvas 513 90 721 543 \$0-filter-category 0;
#X obj 24 200 - 1;
#X obj 24 221 max 0;
#X obj 27 277 loadbang;
#X msg 27 298 0;
#X obj 271 230 + 1;
#X obj 271 251 min;
#X obj 271 181 t b b;
#X obj 20 22 text define \$0-filter-category-list;
#X obj 21 45 v \$0-filter-category;
#X obj 82 106 r \$0-filter-category-minus;
#X obj 23 176 v \$0-filter-category;
#X obj 86 277 r \$0-filter-category;
#X obj 301 230 text size \$0-filter-category-list;
#X obj 271 205 v \$0-filter-category;
#X obj 88 423 text get \$0-filter-category-list;
#X obj 49 445 s \$0-filter-category-label;
#X obj 49 359 moses 1;
#X msg 49 381 symbol All;
#X obj 88 402 - 1;
#X obj 258 22 r \$0-filter-category-reset;
#X msg 258 43 0;
#X obj 24 242 s \$0-filter-category;
#X obj 271 277 s \$0-filter-category;
#X obj 258 64 s \$0-filter-category;
#X obj 126 329 spigot;
#X obj 159 306 r \$0-filter-enable;
#X obj 126 370 s \$0-filter;
#X obj 293 43 r \$0-filter-category-all;
#X obj 23 77 r \$0-filter-category-minus-page;
#X obj 23 102 t b b;
#X obj 82 127 t b b;
#X obj 270 124 t b b;
#X obj 330 149 t b b;
#X msg 296 146 1;
#X msg 357 172 10;
#X msg 48 128 10;
#X msg 108 151 1;
#X obj 270 103 r \$0-filter-category-plus;
#X obj 330 127 r \$0-filter-category-plus-page;
#X obj 87 306 t f b;
#X obj 126 350 del 0;
#X connect 0 0 1 0;
#X connect 1 0 21 0;
#X connect 2 0 3 0;
#X connect 3 0 16 0;
#X connect 4 0 5 0;
#X connect 5 0 22 0;
#X connect 6 0 13 0;
#X connect 6 1 12 0;
#X connect 9 0 30 0;
#X connect 10 0 0 0;
#X connect 11 0 39 0;
#X connect 12 0 5 1;
#X connect 13 0 4 0;
#X connect 14 0 15 0;
#X connect 16 0 17 0;
#X connect 16 1 18 0;
#X connect 17 0 15 0;
#X connect 18 0 14 0;
#X connect 19 0 20 0;
#X connect 20 0 23 0;
#X connect 24 0 40 0;
#X connect 25 0 24 1;
#X connect 27 0 20 0;
#X connect 28 0 29 0;
#X connect 29 0 10 0;
#X connect 29 1 35 0;
#X connect 30 0 10 0;
#X connect 30 1 36 0;
#X connect 31 0 6 0;
#X connect 31 1 33 0;
#X connect 32 0 6 0;
#X connect 32 1 34 0;
#X connect 33 0 4 1;
#X connect 34 0 4 1;
#X connect 35 0 0 1;
#X connect 36 0 0 1;
#X connect 37 0 31 0;
#X connect 38 0 32 0;
#X connect 39 0 16 0;
#X connect 39 1 24 0;
#X connect 40 0 26 0;
#X restore 210 219 pd \$0-filter-category;
#X obj 58 381 text set \$0-filtered 1e+007;
#X text 68 428 select first plugin;
#N canvas 748 36 344 481 \$0-keyword 0;
#X obj 37 37 inlet;
#X obj 38 437 outlet;
#X obj 121 10 r \$0-filter-keyword-out;
#X obj 121 34 sel _;
#X obj 180 34 loadbang;
#X msg 180 55 symbol;
#X obj 38 386 spigot;
#X obj 65 283 list store;
#X text 149 148 name + vendor;
#X obj 65 216 until;
#X obj 65 237 f;
#X obj 93 236 + 1;
#X msg 65 257 get \$1 1;
#X msg 102 339 0;
#X obj 65 149 list split 2;
#X obj 65 170 t l l b;
#X obj 65 194 list length;
#X msg 105 215 0;
#N canvas 605 129 404 663 \$0-find 0;
#X obj 34 36 inlet;
#X obj 61 628 outlet;
#X obj 137 70 r \$0-filter-keyword-out;
#X obj 137 99 list fromsymbol;
#X msg 78 464 get \$1 1;
#X obj 78 373 until;
#X obj 78 488 list store;
#X obj 78 396 f;
#X obj 106 397 + 1;
#X obj 137 149 list length;
#X obj 34 61 list fromsymbol;
#X obj 34 178 -;
#X obj 34 145 list length;
#X obj 78 441 +;
#X msg 153 464 get \$1 1;
#X obj 153 488 list store;
#X obj 78 417 t f f;
#X obj 61 268 until;
#X obj 61 245 t f b;
#X obj 61 289 f;
#X obj 88 291 + 1;
#X msg 98 269 0;
#X obj 34 119 t l l;
#X obj 61 319 t b b f b;
#X msg 130 375 0;
#X obj 78 514 !=;
#X obj 78 535 sel 1;
#X obj 61 578 spigot;
#X msg 113 556 1;
#X msg 78 555 0;
#X obj 61 603 t b b;
#X text 107 515 break on character mismatch;
#X text 70 176 max offset: haystack size - needle size;
#X obj 34 200 moses;
#X obj 61 222 + 1;
#X text 71 198 the needle must not larger than the haystack;
#X text 104 603 success! stop all iterations;
#X text 135 51 needle;
#X text 74 36 haystack;
#X obj 78 346 f;
#N canvas 218 105 298 496 \$0-lower 0;
#X obj 37 37 inlet;
#X obj 110 120 array size \$0-string-buf;
#X obj 109 96 list length;
#X obj 86 146 array set \$0-string-buf;
#X obj 39 83 t b l l l;
#X obj 60 190 list length;
#X obj 60 169 t l b;
#X obj 60 211 until;
#X obj 60 231 f;
#X obj 88 233 + 1;
#X msg 98 209 0;
#X obj 60 276 tabread \$0-string-buf;
#X obj 60 252 t f f;
#X obj 66 376 tabwrite \$0-string-buf;
#X obj 60 297 moses 65;
#X obj 105 322 moses 91;
#X obj 75 344 + 32;
#X obj 45 410 array get \$0-string-buf;
#X obj 45 437 outlet;
#X connect 0 0 4 0;
#X connect 2 0 1 0;
#X connect 4 0 17 0;
#X connect 4 1 6 0;
#X connect 4 2 3 0;
#X connect 4 3 2 0;
#X connect 5 0 7 0;
#X connect 6 0 5 0;
#X connect 6 1 10 0;
#X connect 7 0 8 0;
#X connect 8 0 9 0;
#X connect 8 0 12 0;
#X connect 9 0 8 1;
#X connect 10 0 8 1;
#X connect 11 0 14 0;
#X connect 12 0 11 0;
#X connect 12 1 13 1;
#X connect 14 0 13 0;
#X connect 14 1 15 0;
#X connect 15 0 16 0;
#X connect 15 1 13 0;
#X connect 16 0 13 0;
#X connect 17 0 18 0;
#X restore 34 87 pd \$0-lower;
#X obj 200 35 array define \$0-string-buf;
#N canvas 218 105 298 496 \$0-lower 0;
#X obj 37 37 inlet;
#X obj 110 120 array size \$0-string-buf;
#X obj 109 96 list length;
#X obj 86 146 array set \$0-string-buf;
#X obj 39 83 t b l l l;
#X obj 60 190 list length;
#X obj 60 169 t l b;
#X obj 60 211 until;
#X obj 60 231 f;
#X obj 88 233 + 1;
#X msg 98 209 0;
#X obj 60 276 tabread \$0-string-buf;
#X obj 60 252 t f f;
#X obj 66 376 tabwrite \$0-string-buf;
#X obj 60 297 moses 65;
#X obj 105 322 moses 91;
#X obj 75 344 + 32;
#X obj 45 410 array get \$0-string-buf;
#X obj 45 437 outlet;
#X connect 0 0 4 0;
#X connect 2 0 1 0;
#X connect 4 0 17 0;
#X connect 4 1 6 0;
#X connect 4 2 3 0;
#X connect 4 3 2 0;
#X connect 5 0 7 0;
#X connect 6 0 5 0;
#X connect 6 1 10 0;
#X connect 7 0 8 0;
#X connect 8 0 9 0;
#X connect 8 0 12 0;
#X connect 9 0 8 1;
#X connect 10 0 8 1;
#X connect 11 0 14 0;
#X connect 12 0 11 0;
#X connect 12 1 13 1;
#X connect 14 0 13 0;
#X connect 14 1 15 0;
#X connect 15 0 16 0;
#X connect 15 1 13 0;
#X connect 16 0 13 0;
#X connect 17 0 18 0;
#X restore 137 121 pd \$0-lower;
#X connect 0 0 10 0;
#X connect 2 0 3 0;
#X connect 3 0 42 0;
#X connect 4 0 6 0;
#X connect 5 0 7 0;
#X connect 6 0 25 0;
#X connect 7 0 8 0;
#X connect 7 0 16 0;
#X connect 8 0 7 1;
#X connect 9 0 11 1;
#X connect 9 0 39 1;
#X connect 10 0 40 0;
#X connect 11 0 33 0;
#X connect 12 0 11 0;
#X connect 13 0 4 0;
#X connect 14 0 15 0;
#X connect 15 0 25 1;
#X connect 16 0 13 0;
#X connect 16 1 14 0;
#X connect 17 0 19 0;
#X connect 18 0 17 0;
#X connect 18 1 21 0;
#X connect 19 0 20 0;
#X connect 19 0 23 0;
#X connect 20 0 19 1;
#X connect 21 0 19 1;
#X connect 22 0 12 0;
#X connect 22 1 6 1;
#X connect 23 0 27 0;
#X connect 23 1 39 0;
#X connect 23 2 13 1;
#X connect 23 3 24 0;
#X connect 23 3 28 0;
#X connect 24 0 7 1;
#X connect 25 0 26 0;
#X connect 26 0 29 0;
#X connect 27 0 30 0;
#X connect 28 0 27 1;
#X connect 29 0 27 1;
#X connect 30 0 1 0;
#X connect 30 1 5 1;
#X connect 30 1 17 1;
#X connect 33 1 34 0;
#X connect 34 0 18 0;
#X connect 39 0 5 0;
#X connect 40 0 22 0;
#X connect 42 0 9 0;
#X connect 42 0 15 1;
#X restore 65 310 pd \$0-find;
#X msg 67 336 1;
#X obj 148 56 b;
#X text 135 308 stop iteration on success!;
#X obj 37 73 t l l;
#X obj 67 101 spigot;
#X obj 67 122 t l b;
#X msg 120 59 0;
#X msg 147 81 1;
#X obj 119 104 t f f;
#X obj 146 366 == 0;
#X connect 0 0 22 0;
#X connect 2 0 3 0;
#X connect 3 0 25 0;
#X connect 3 1 20 0;
#X connect 4 0 5 0;
#X connect 5 0 3 1;
#X connect 6 0 1 0;
#X connect 7 0 18 0;
#X connect 9 0 10 0;
#X connect 10 0 11 0;
#X connect 10 0 12 0;
#X connect 11 0 10 1;
#X connect 12 0 7 0;
#X connect 13 0 6 1;
#X connect 14 0 15 0;
#X connect 15 0 16 0;
#X connect 15 1 7 1;
#X connect 15 2 17 0;
#X connect 16 0 9 0;
#X connect 17 0 10 1;
#X connect 18 0 9 1;
#X connect 18 0 19 0;
#X connect 19 0 6 1;
#X connect 20 0 26 0;
#X connect 22 0 6 0;
#X connect 22 1 23 0;
#X connect 23 0 24 0;
#X connect 24 0 14 0;
#X connect 24 1 13 0;
#X connect 25 0 27 0;
#X connect 26 0 27 0;
#X connect 27 0 23 1;
#X connect 27 1 28 0;
#X connect 28 0 6 1;
#X restore 58 240 pd \$0-keyword;
#N canvas 186 298 336 317 \$0-type 0;
#X obj 37 28 inlet;
#X obj 37 253 outlet;
#N canvas 501 176 481 319 \$0-bridged 0;
#X obj 46 57 inlet;
#X obj 124 51 r \$0-filter-native;
#X obj 245 52 r \$0-filter-bridged;
#X obj 45 151 outlet;
#X obj 121 76 t b f;
#X obj 245 73 t b f;
#X obj 122 224 s \$0-filter;
#X obj 122 180 spigot;
#X obj 155 158 r \$0-filter-enable;
#X obj 46 78 t f;
#X obj 122 201 del 0;
#X obj 165 76 tgl 15 0 empty empty empty 17 7 0 10 -262144 -1 -1 1
1;
#X obj 286 79 tgl 15 0 empty empty empty 17 7 0 10 -262144 -1 -1 1
1;
#X obj 45 124 expr ($f2 && $f1 == 0) || ($f3 && $f1 == 1);
#X connect 0 0 9 0;
#X connect 1 0 4 0;
#X connect 1 0 11 0;
#X connect 2 0 5 0;
#X connect 2 0 12 0;
#X connect 4 0 7 0;
#X connect 4 1 13 1;
#X connect 5 0 7 0;
#X connect 5 1 13 2;
#X connect 7 0 10 0;
#X connect 8 0 7 1;
#X connect 9 0 13 0;
#X connect 10 0 6 0;
#X connect 13 0 3 0;
#X restore 163 178 pd \$0-bridged;
#X obj 37 219 spigot;
#X obj 37 56 t l l;
#X obj 95 104 unpack f f f;
#N canvas 480 227 421 278 \$0-type 0;
#X obj 46 57 inlet;
#X obj 45 151 outlet;
#X obj 121 76 t b f;
#X obj 245 73 t b f;
#X obj 122 224 s \$0-filter;
#X obj 122 180 spigot;
#X obj 155 158 r \$0-filter-enable;
#X obj 46 78 t f;
#X obj 122 201 del 0;
#X obj 165 76 tgl 15 0 empty empty empty 17 7 0 10 -262144 -1 -1 1
1;
#X obj 286 79 tgl 15 0 empty empty empty 17 7 0 10 -262144 -1 -1 1
1;
#X obj 124 51 r \$0-filter-fx;
#X obj 245 52 r \$0-filter-synth;
#X obj 45 124 expr ($f2 && $f1 == 0) || ($f3 && $f1 == 1);
#X connect 0 0 7 0;
#X connect 2 0 5 0;
#X connect 2 1 13 1;
#X connect 3 0 5 0;
#X connect 3 1 13 2;
#X connect 5 0 8 0;
#X connect 6 0 5 1;
#X connect 7 0 13 0;
#X connect 8 0 4 0;
#X connect 11 0 2 0;
#X connect 11 0 9 0;
#X connect 12 0 3 0;
#X connect 12 0 10 0;
#X connect 13 0 1 0;
#X restore 126 155 pd \$0-type;
#X obj 93 197 &&;
#X obj 125 198 &&;
#X obj 62 79 list split 2;
#N canvas 480 227 393 263 \$0-sdk 0;
#X obj 46 57 inlet;
#X obj 45 151 outlet;
#X obj 121 76 t b f;
#X obj 245 73 t b f;
#X obj 122 224 s \$0-filter;
#X obj 122 180 spigot;
#X obj 155 158 r \$0-filter-enable;
#X obj 46 78 t f;
#X obj 122 201 del 0;
#X obj 165 76 tgl 15 0 empty empty empty 17 7 0 10 -262144 -1 -1 1
1;
#X obj 286 79 tgl 15 0 empty empty empty 17 7 0 10 -262144 -1 -1 1
1;
#X obj 124 51 r \$0-filter-vst2;
#X obj 245 52 r \$0-filter-vst3;
#X obj 45 124 expr ($f2 && $f1 == 0) || ($f3 && $f1 == 1);
#X connect 0 0 7 0;
#X connect 2 0 5 0;
#X connect 2 1 13 1;
#X connect 3 0 5 0;
#X connect 3 1 13 2;
#X connect 5 0 8 0;
#X connect 6 0 5 1;
#X connect 7 0 13 0;
#X connect 8 0 4 0;
#X connect 11 0 2 0;
#X connect 11 0 9 0;
#X connect 12 0 3 0;
#X connect 12 0 10 0;
#X connect 13 0 1 0;
#X restore 95 130 pd \$0-sdk;
#X connect 0 0 4 0;
#X connect 2 0 8 1;
#X connect 3 0 1 0;
#X connect 4 0 3 0;
#X connect 4 1 9 0;
#X connect 5 0 10 0;
#X connect 5 1 6 0;
#X connect 5 2 2 0;
#X connect 6 0 8 0;
#X connect 7 0 3 1;
#X connect 8 0 7 1;
#X connect 9 1 5 0;
#X connect 10 0 7 0;
#X restore 58 262 pd \$0-type;
#N canvas 497 465 450 300 \$0-vendor 0;
#X obj 51 40 inlet;
#X obj 51 247 outlet;
#X obj 70 87 v \$0-filter-vendor;
#X obj 70 108 moses 1;
#X obj 51 212 spigot;
#X msg 84 189 1;
#X obj 51 61 t l b l;
#X obj 123 109 unpack s s;
#X obj 109 205 sel _;
#X obj 109 133 - 1;
#X obj 109 160 text get \$0-filter-vendor-list;
#X obj 109 181 t s;
#X msg 136 226 0;
#X obj 224 70 loadbang;
#X msg 224 91 symbol;
#X msg 197 134 symbol [unknown];
#X obj 197 112 sel _;
#X connect 0 0 6 0;
#X connect 2 0 3 0;
#X connect 3 0 5 0;
#X connect 3 1 9 0;
#X connect 4 0 1 0;
#X connect 5 0 4 1;
#X connect 6 0 4 0;
#X connect 6 1 2 0;
#X connect 6 2 7 0;
#X connect 7 1 16 0;
#X connect 8 0 5 0;
#X connect 8 1 12 0;
#X connect 9 0 10 0;
#X connect 10 0 11 0;
#X connect 11 0 8 0;
#X connect 12 0 4 1;
#X connect 13 0 14 0;
#X connect 14 0 16 1;
#X connect 15 0 8 1;
#X connect 16 0 15 0;
#X connect 16 1 8 1;
#X restore 58 285 pd \$0-vendor;
#N canvas 880 244 337 452 \$0-category 0;
#X obj 38 28 inlet;
#X obj 38 400 outlet;
#X obj 57 107 moses 1;
#X obj 38 371 spigot;
#X msg 57 347 1;
#X obj 38 55 t l b l;
#X obj 96 132 - 1;
#X msg 150 351 0;
#X obj 96 153 text get \$0-filter-category-list;
#X obj 57 81 v \$0-filter-category;
#X obj 96 297 list store;
#X obj 96 320 sel _;
#X obj 96 197 f;
#X obj 127 130 list length;
#X obj 96 218 until;
#X obj 96 249 f;
#X obj 125 248 + 1;
#X msg 136 218 0;
#X msg 96 274 get \$1 1;
#X obj 114 105 list split 5;
#X obj 96 174 t b s b b;
#X connect 0 0 5 0;
#X connect 2 0 4 0;
#X connect 2 1 6 0;
#X connect 3 0 1 0;
#X connect 4 0 3 1;
#X connect 5 0 3 0;
#X connect 5 1 9 0;
#X connect 5 2 19 0;
#X connect 6 0 8 0;
#X connect 7 0 3 1;
#X connect 8 0 20 0;
#X connect 9 0 2 0;
#X connect 10 0 11 0;
#X connect 11 0 4 0;
#X connect 11 0 14 1;
#X connect 12 0 14 0;
#X connect 13 0 12 1;
#X connect 14 0 15 0;
#X connect 15 0 16 0;
#X connect 15 0 18 0;
#X connect 16 0 15 1;
#X connect 17 0 15 1;
#X connect 18 0 10 0;
#X connect 19 1 10 1;
#X connect 19 1 13 0;
#X connect 20 0 12 0;
#X connect 20 1 11 1;
#X connect 20 2 17 0;
#X connect 20 3 7 0;
#X restore 58 307 pd \$0-category;
#N canvas 248 133 450 300 \$0-filter-keyword 0;
#X obj 33 33 r \$0-filter-keyword-out;
#X obj 33 75 spigot;
#X obj 66 54 r \$0-filter-enable;
#X obj 33 117 del 0;
#X obj 33 138 s \$0-filter;
#X text 72 117 because of unspecified receive order!;
#X obj 33 96 b;
#X connect 0 0 1 0;
#X connect 1 0 6 0;
#X connect 2 0 1 1;
#X connect 3 0 4 0;
#X connect 6 0 3 0;
#X restore 209 167 pd \$0-filter-keyword;
#X obj 117 453 text size \$0-filtered;
#X obj 39 406 t b b;
#X obj 117 498 max 0;
#X msg 148 542 range \$1 0;
#X msg 117 563 0;
#X obj 117 520 t b f f;
#X obj 172 521 s \$0-scroll-size;
#X obj 117 600 s \$0-scroll-bar;
#X obj 148 562 s \$0-scroll-bar;
#X obj 39 452 s \$0-select;
#X msg 39 428 0;
#X obj 234 58 s \$0-filtered-ex;
#X obj 204 129 s \$0-path-label;
#X obj 85 213 f;
#X obj 114 213 + 1;
#X obj 58 334 t a b;
#X obj 85 357 f;
#X msg 100 191 0;
#X obj 113 357 text set \$0-filtered-ex 1e+007;
#X obj 113 333 text get \$0-info-ex;
#X msg 204 108 symbol;
#X obj 146 476 r \$0-height;
#X obj 117 476 -;
#X obj 39 30 t b b b;
#X obj 72 54 text size \$0-info;
#X obj 39 76 spigot;
#X obj 58 190 t l b;
#X connect 0 0 44 0;
#X connect 1 0 0 0;
#X connect 3 0 2 0;
#X connect 3 0 29 0;
#X connect 4 0 41 0;
#X connect 5 0 19 0;
#X connect 5 1 1 0;
#X connect 5 2 35 0;
#X connect 8 0 7 0;
#X connect 13 0 14 0;
#X connect 14 0 15 0;
#X connect 15 0 16 0;
#X connect 16 0 33 0;
#X connect 18 0 40 0;
#X connect 19 0 28 0;
#X connect 19 1 18 0;
#X connect 20 0 23 0;
#X connect 21 0 26 0;
#X connect 22 0 25 0;
#X connect 23 0 22 0;
#X connect 23 1 21 0;
#X connect 23 2 24 0;
#X connect 28 0 27 0;
#X connect 31 0 32 0;
#X connect 31 0 34 1;
#X connect 32 0 31 1;
#X connect 33 0 11 0;
#X connect 33 1 34 0;
#X connect 34 0 37 0;
#X connect 35 0 31 1;
#X connect 37 0 36 0;
#X connect 38 0 30 0;
#X connect 39 0 40 1;
#X connect 40 0 20 0;
#X connect 41 0 43 0;
#X connect 41 1 42 0;
#X connect 41 2 3 0;
#X connect 41 2 8 0;
#X connect 41 2 38 0;
#X connect 42 0 43 1;
#X connect 43 0 5 0;
#X connect 44 0 13 0;
#X connect 44 1 31 0;
#X restore 409 185 pd \$0-filter;
#N canvas 999 333 516 453 \$0-scroll 0;
#X obj 39 163 text size \$0-filtered;
#X obj 178 163 loadbang;
#X obj 22 182 swap;
#X obj 22 206 -;
#X obj 57 140 v \$0-offset;
#N canvas 956 86 365 452 \$0-make-buttons 0;
#X obj 24 17 inlet;
#X obj 156 245 pointer;
#X msg 155 225 traverse \$1 \, bang;
#X obj 23 69 until;
#X obj 23 94 f;
#X obj 54 96 + 1;
#X msg 62 71 0;
#X obj 59 141 * 15;
#X msg 69 17 10;
#X obj 24 42 t f b b;
#X obj 156 203 symbol pd-\$0-plugin-list;
#X obj 59 164 + 0;
#X obj 41 187 v \$0-offset;
#X obj 21 207 +;
#X obj 23 114 t f b f;
#X obj 21 349 route click;
#X obj 21 396 get \$0-button id;
#X obj 21 417 s \$0-select;
#X obj 21 373 t p;
#X obj 21 272 append \$0-button id y x;
#X obj 21 243 pack f f 0;
#X obj 21 326 struct \$0-button float x float y float id;
#X obj 20 302 filledpolygon 999 0 1 0 0 435 0 435 15 0 15;
#X connect 0 0 9 0;
#X connect 1 0 19 3;
#X connect 2 0 1 0;
#X connect 3 0 4 0;
#X connect 4 0 5 0;
#X connect 4 0 14 0;
#X connect 5 0 4 1;
#X connect 6 0 4 1;
#X connect 7 0 11 0;
#X connect 8 0 9 0;
#X connect 9 0 3 0;
#X connect 9 1 6 0;
#X connect 9 2 10 0;
#X connect 10 0 2 0;
#X connect 11 0 20 1;
#X connect 12 0 13 1;
#X connect 13 0 20 0;
#X connect 14 0 13 0;
#X connect 14 1 12 0;
#X connect 14 2 7 0;
#X connect 15 0 18 0;
#X connect 16 0 17 0;
#X connect 18 0 16 0;
#X connect 20 0 19 0;
#X connect 21 0 15 0;
#X restore 100 294 pd \$0-make-buttons;
#N canvas 559 352 450 416 \$0-make-labels 0;
#X obj 41 33 inlet;
#X obj 41 56 t f b;
#X obj 40 84 until;
#X obj 40 106 f;
#X obj 66 107 + 1;
#X msg 77 86 0;
#N canvas 894 270 397 321 makelabel 0;
#X obj 39 30 inlet;
#X obj 39 262 outlet;
#X obj 39 130 list fromsymbol;
#X obj 39 178 list;
#X obj 39 235 list tosymbol;
#X obj 39 75 text get \$0-filtered;
#X obj 39 207 list;
#N canvas 140 358 313 230 bridged 0;
#X obj 52 37 inlet;
#X obj 106 49 loadbang;
#X obj 106 91 list fromsymbol;
#X obj 51 111 list;
#X obj 51 170 outlet;
#X obj 51 67 sel 1;
#X obj 79 136 b;
#X msg 106 70 symbol  [bridged];
#X connect 0 0 5 0;
#X connect 1 0 7 0;
#X connect 2 0 3 1;
#X connect 3 0 4 0;
#X connect 5 0 3 0;
#X connect 5 1 6 0;
#X connect 6 0 4 0;
#X connect 7 0 2 0;
#X restore 132 157 pd bridged;
#N canvas 420 285 450 300 vendor 0;
#X obj 43 49 inlet;
#X obj 43 161 outlet;
#X obj 99 34 loadbang;
#X msg 99 58 symbol;
#X obj 43 82 sel symbol;
#X obj 99 132 list fromsymbol;
#X msg 99 107 symbol  (\$1);
#X text 114 81 test for empty symbol;
#X connect 0 0 4 0;
#X connect 2 0 3 0;
#X connect 3 0 4 1;
#X connect 4 0 1 0;
#X connect 4 1 6 0;
#X connect 5 0 1 0;
#X connect 6 0 5 0;
#X restore 61 153 pd vendor;
#X text 107 26 <name> [<vendor>] [<bridged>];
#X text 107 48 AwesomePlugin (ACME inc.) [bridged];
#X obj 39 106 unpack s s f f f;
#X connect 0 0 5 0;
#X connect 2 0 3 0;
#X connect 3 0 6 0;
#X connect 4 0 1 0;
#X connect 5 0 11 0;
#X connect 6 0 4 0;
#X connect 7 0 6 1;
#X connect 8 0 3 1;
#X connect 11 0 2 0;
#X connect 11 1 8 0;
#X connect 11 4 7 0;
#X restore 91 236 pd makelabel;
#X text 127 266 make plugin labels;
#X obj 40 153 * 15;
#X obj 40 266 pack f f s \$0;
#X obj 40 325 s pd-\$0-plugin-list;
#X obj 40 127 t f f b;
#X obj 65 181 +;
#X obj 81 155 v \$0-offset;
#X obj 65 208 t f f;
#X obj 40 181 + 1;
#X msg 40 289 obj 1 \$1 cnv 1 433 13 empty \$4-label-\$2 \$3 10 8 0
12 -262144 -1 0;
#X connect 0 0 1 0;
#X connect 1 0 2 0;
#X connect 1 1 5 0;
#X connect 2 0 3 0;
#X connect 3 0 4 0;
#X connect 3 0 11 0;
#X connect 4 0 3 1;
#X connect 5 0 3 1;
#X connect 6 0 9 2;
#X connect 8 0 15 0;
#X connect 9 0 16 0;
#X connect 11 0 8 0;
#X connect 11 1 12 0;
#X connect 11 2 13 0;
#X connect 12 0 14 0;
#X connect 13 0 12 1;
#X connect 14 0 9 1;
#X connect 14 1 6 0;
#X connect 15 0 9 0;
#X connect 16 0 10 0;
#X restore 80 315 pd \$0-make-labels;
#X obj 73 97 s pd-\$0-plugin-list;
#X msg 73 76 clear;
#X obj 115 78 s \$0-select-old;
#X msg 115 58 -1;
#X obj 178 204 s \$0-scroll-bar;
#X obj 292 33 r \$0-scroll-up;
#X obj 22 32 r \$0-scroll;
#X msg 178 183 0;
#X obj 22 55 t f b f b;
#X obj 22 227 moses 0;
#X obj 292 106 v \$0-scroll;
#X obj 292 174 s \$0-scroll-bar;
#X obj 290 278 v \$0-scroll;
#X obj 290 321 + 1;
#X obj 290 342 min;
#X obj 290 299 t f b;
#X obj 317 321 v \$0-scroll-size;
#X obj 290 363 s \$0-scroll-bar;
#X obj 292 132 - 1;
#X obj 292 153 max 0;
#X obj 290 208 r \$0-scroll-down;
#X obj 348 57 r \$0-scroll-page-up;
#X obj 350 231 r \$0-scroll-page-down;
#X obj 292 53 t b b;
#X obj 348 78 t b b;
#X msg 319 74 1;
#X obj 290 231 t b b;
#X obj 350 252 t b b;
#X msg 317 250 1;
#X obj 57 121 int;
#X obj 61 274 t b f f;
#X obj 61 348 f;
#X obj 91 347 r \$0-select;
#X obj 61 369 s \$0-select;
#X obj 375 105 v \$0-height;
#X obj 377 276 v \$0-height;
#X obj 76 226 r \$0-height;
#X obj 61 251 min;
#X connect 0 0 2 1;
#X connect 1 0 14 0;
#X connect 2 0 3 0;
#X connect 2 1 3 1;
#X connect 3 0 16 0;
#X connect 8 0 7 0;
#X connect 10 0 9 0;
#X connect 12 0 30 0;
#X connect 13 0 15 0;
#X connect 14 0 11 0;
#X connect 15 0 2 0;
#X connect 15 1 0 0;
#X connect 15 2 36 0;
#X connect 15 3 8 0;
#X connect 15 3 10 0;
#X connect 16 1 44 0;
#X connect 17 0 25 0;
#X connect 19 0 22 0;
#X connect 20 0 21 0;
#X connect 21 0 24 0;
#X connect 22 0 20 0;
#X connect 22 1 23 0;
#X connect 23 0 21 1;
#X connect 25 0 26 0;
#X connect 26 0 18 0;
#X connect 27 0 33 0;
#X connect 28 0 31 0;
#X connect 29 0 34 0;
#X connect 30 0 17 0;
#X connect 30 1 32 0;
#X connect 31 0 17 0;
#X connect 31 1 41 0;
#X connect 32 0 25 1;
#X connect 33 0 19 0;
#X connect 33 1 35 0;
#X connect 34 0 19 0;
#X connect 34 1 42 0;
#X connect 35 0 20 1;
#X connect 36 0 4 0;
#X connect 37 0 38 0;
#X connect 37 1 6 0;
#X connect 37 2 5 0;
#X connect 38 0 40 0;
#X connect 39 0 38 1;
#X connect 41 0 25 1;
#X connect 42 0 20 1;
#X connect 43 0 44 1;
#X connect 44 0 37 0;
#X restore 409 146 pd \$0-scroll;
#X obj 46 513 s \$0-filter;
#X text 407 166 apply filtering;
#X text 57 496 apply filter;
#X obj 46 104 t a b;
#X obj 160 181 symbol;
#X obj 159 311 list fromsymbol;
#X obj 103 290 symbol;
#X obj 159 290 symbol;
#X obj 80 401 list append;
#N canvas 1053 210 450 556 \$0-split 0;
#X obj 33 8 inlet;
#X obj 34 526 outlet;
#X obj 63 234 list store;
#X obj 33 49 list fromsymbol;
#X msg 63 208 get \$1 1;
#X obj 63 139 until;
#X obj 63 162 f;
#X obj 90 162 + 1;
#X obj 63 92 list length;
#X obj 92 430 list store;
#X text 141 266 '|' character;
#X obj 63 267 sel 124;
#X msg 133 315 0;
#X obj 63 183 t f f;
#X obj 63 296 f;
#X obj 63 340 + 1;
#X obj 34 504 list store;
#X obj 63 113 + 1;
#X obj 90 383 pack f f;
#X obj 90 358 -;
#X obj 133 343 t f f;
#X obj 63 316 t f f;
#X msg 90 404 get \$2 \$1;
#X obj 33 70 t b l l b b, f 20;
#X obj 92 451 list tosymbol;
#X msg 114 138 0;
#X msg 92 472 append \$1;
#X obj 33 29 symbol;
#X connect 0 0 27 0;
#X connect 2 0 11 0;
#X connect 2 1 14 0;
#X connect 3 0 23 0;
#X connect 4 0 2 0;
#X connect 5 0 6 0;
#X connect 6 0 7 0;
#X connect 6 0 13 0;
#X connect 7 0 6 1;
#X connect 8 0 17 0;
#X connect 9 0 24 0;
#X connect 11 0 14 0;
#X connect 12 0 20 0;
#X connect 13 0 4 0;
#X connect 13 1 14 1;
#X connect 14 0 21 0;
#X connect 15 0 20 0;
#X connect 16 0 1 0;
#X connect 17 0 5 0;
#X connect 18 0 22 0;
#X connect 19 0 18 0;
#X connect 20 0 19 1;
#X connect 20 1 18 1;
#X connect 21 0 15 0;
#X connect 21 1 19 0;
#X connect 22 0 9 0;
#X connect 23 0 16 0;
#X connect 23 1 8 0;
#X connect 23 2 2 1;
#X connect 23 2 9 1;
#X connect 23 3 12 0;
#X connect 23 3 25 0;
#X connect 23 4 16 1;
#X connect 24 0 26 0;
#X connect 25 0 6 1;
#X connect 26 0 16 0;
#X connect 27 0 3 0;
#X restore 269 296 pd \$0-split;
#N canvas 764 156 489 574 \$0-update-filters 0;
#X obj 21 27 inlet;
#X obj 39 185 text sequence \$0-info;
#X msg 39 153 line 0 \, bang;
#X obj 125 121 s \$0-filter-vendor-list;
#X obj 134 141 s \$0-filter-category-list;
#X msg 125 100 clear;
#X obj 39 229 unpack s s;
#N canvas 308 323 410 421 \$0-update-vendors 0;
#X obj 19 14 inlet;
#X obj 46 182 until;
#X obj 46 114 text size \$0-filter-vendor-list;
#X obj 46 206 f;
#X obj 78 207 + 1;
#X msg 72 158 0;
#X obj 47 274 text get \$0-filter-vendor-list;
#X obj 47 295 t s;
#X text 71 296 stop on match;
#X obj 46 85 t b b s;
#X obj 46 158 + 1;
#X obj 46 251 moses;
#X obj 73 363 symbol;
#X obj 73 340 b;
#X obj 73 386 text insert \$0-filter-vendor-list;
#X obj 47 316 sel _;
#X obj 46 135 t f f;
#X obj 46 227 t f f;
#X obj 19 35 sel _;
#X obj 61 13 loadbang;
#X msg 61 34 symbol;
#X text 183 317 lexicographical compare;
#N canvas 363 218 450 488 \$0-compare 0;
#X obj 127 68 inlet;
#X obj 70 68 inlet;
#X obj 70 409 outlet;
#X obj 127 89 list fromsymbol;
#X obj 70 270 list store;
#X obj 140 271 list store;
#X obj 70 113 list fromsymbol;
#X obj 70 157 list length;
#X obj 70 182 until;
#X obj 70 203 f;
#X obj 98 204 + 1;
#X msg 70 226 get \$1 1;
#X obj 70 247 t a a;
#X msg 111 181 0;
#X obj 70 134 t l l b;
#X obj 70 382 t b b;
#X obj 197 313 t b b;
#X msg 197 334 -1;
#X obj 70 319 moses;
#X obj 116 342 !=;
#X obj 116 363 sel 1;
#N canvas 0 50 450 300 \$0-case 0;
#X obj 40 46 moses 65;
#X obj 85 69 moses 91;
#X obj 84 92 + 32;
#X obj 40 115 t f;
#X obj 39 23 inlet;
#X obj 40 136 outlet;
#X connect 0 0 3 0;
#X connect 0 1 1 0;
#X connect 1 0 2 0;
#X connect 1 1 3 0;
#X connect 2 0 3 0;
#X connect 3 0 5 0;
#X connect 4 0 0 0;
#X restore 70 294 pd \$0-case;
#N canvas 0 50 450 300 \$0-case 0;
#X obj 40 46 moses 65;
#X obj 85 69 moses 91;
#X obj 84 92 + 32;
#X obj 40 115 t f;
#X obj 39 23 inlet;
#X obj 40 136 outlet;
#X connect 0 0 3 0;
#X connect 0 1 1 0;
#X connect 1 0 2 0;
#X connect 1 1 3 0;
#X connect 2 0 3 0;
#X connect 3 0 5 0;
#X connect 4 0 0 0;
#X restore 140 293 pd \$0-case;
#X text 207 289 case insensitive!;
#X connect 0 0 3 0;
#X connect 1 0 6 0;
#X connect 3 0 4 1;
#X connect 4 0 21 0;
#X connect 4 1 15 0;
#X connect 5 0 22 0;
#X connect 5 1 16 0;
#X connect 6 0 14 0;
#X connect 7 0 8 0;
#X connect 8 0 9 0;
#X connect 9 0 10 0;
#X connect 9 0 11 0;
#X connect 10 0 9 1;
#X connect 11 0 12 0;
#X connect 12 0 4 0;
#X connect 12 1 5 0;
#X connect 13 0 9 1;
#X connect 14 0 7 0;
#X connect 14 1 5 1;
#X connect 14 2 13 0;
#X connect 15 0 2 0;
#X connect 15 1 8 1;
#X connect 16 0 17 0;
#X connect 16 1 8 1;
#X connect 17 0 18 1;
#X connect 18 0 15 0;
#X connect 18 1 19 0;
#X connect 19 0 20 0;
#X connect 20 0 8 1;
#X connect 21 0 18 0;
#X connect 22 0 18 1;
#X connect 22 0 19 1;
#X restore 96 315 pd \$0-compare;
#X text 113 36 filter and replace empty symbol;
#X msg 19 57 symbol [unknown];
#X connect 0 0 18 0;
#X connect 1 0 3 0;
#X connect 2 0 16 0;
#X connect 3 0 4 0;
#X connect 3 0 17 0;
#X connect 4 0 3 1;
#X connect 5 0 3 1;
#X connect 6 0 7 0;
#X connect 7 0 15 0;
#X connect 9 0 2 0;
#X connect 9 1 5 0;
#X connect 9 2 12 1;
#X connect 9 2 15 1;
#X connect 9 2 22 1;
#X connect 10 0 1 0;
#X connect 11 0 6 0;
#X connect 11 1 13 0;
#X connect 12 0 14 0;
#X connect 13 0 12 0;
#X connect 15 0 1 1;
#X connect 15 1 22 0;
#X connect 16 0 10 0;
#X connect 16 1 11 1;
#X connect 17 0 11 0;
#X connect 17 1 14 1;
#X connect 18 0 24 0;
#X connect 18 1 9 0;
#X connect 19 0 20 0;
#X connect 20 0 18 1;
#X connect 22 0 13 0;
#X connect 22 0 1 1;
#X connect 24 0 9 0;
#X restore 96 254 pd \$0-update-vendors;
#N canvas 570 143 366 558 \$0-update-categories 0;
#X obj 19 14 inlet;
#X obj 46 290 until;
#X obj 46 314 f;
#X obj 78 315 + 1;
#X msg 72 266 0;
#X obj 47 403 t s;
#X text 71 404 stop on match;
#X obj 46 193 t b b s;
#X obj 46 266 + 1;
#X obj 46 359 moses;
#X obj 73 471 symbol;
#X obj 73 449 b;
#N canvas 363 218 450 488 \$0-compare 0;
#X obj 127 68 inlet;
#X obj 70 68 inlet;
#X obj 70 409 outlet;
#X obj 127 89 list fromsymbol;
#X obj 70 270 list store;
#X obj 140 271 list store;
#X obj 70 113 list fromsymbol;
#X obj 70 157 list length;
#X obj 70 182 until;
#X obj 70 203 f;
#X obj 98 204 + 1;
#X msg 70 226 get \$1 1;
#X obj 70 247 t a a;
#X msg 111 181 0;
#X obj 70 134 t l l b;
#X obj 70 382 t b b;
#X obj 197 313 t b b;
#X msg 197 334 -1;
#X obj 70 319 moses;
#X obj 116 342 !=;
#X obj 116 363 sel 1;
#N canvas 0 50 450 300 \$0-case 0;
#X obj 40 46 moses 65;
#X obj 85 69 moses 91;
#X obj 84 92 + 32;
#X obj 40 115 t f;
#X obj 39 23 inlet;
#X obj 40 136 outlet;
#X connect 0 0 3 0;
#X connect 0 1 1 0;
#X connect 1 0 2 0;
#X connect 1 1 3 0;
#X connect 2 0 3 0;
#X connect 3 0 5 0;
#X connect 4 0 0 0;
#X restore 70 294 pd \$0-case;
#N canvas 0 50 450 300 \$0-case 0;
#X obj 40 46 moses 65;
#X obj 85 69 moses 91;
#X obj 84 92 + 32;
#X obj 40 115 t f;
#X obj 39 23 inlet;
#X obj 40 136 outlet;
#X connect 0 0 3 0;
#X connect 0 1 1 0;
#X connect 1 0 2 0;
#X connect 1 1 3 0;
#X connect 2 0 3 0;
#X connect 3 0 5 0;
#X connect 4 0 0 0;
#X restore 140 293 pd \$0-case;
#X text 212 291 case insensitive!;
#X connect 0 0 3 0;
#X connect 1 0 6 0;
#X connect 3 0 4 1;
#X connect 4 0 21 0;
#X connect 4 1 15 0;
#X connect 5 0 22 0;
#X connect 5 1 16 0;
#X connect 6 0 14 0;
#X connect 7 0 8 0;
#X connect 8 0 9 0;
#X connect 9 0 10 0;
#X connect 9 0 11 0;
#X connect 10 0 9 1;
#X connect 11 0 12 0;
#X connect 12 0 4 0;
#X connect 12 1 5 0;
#X connect 13 0 9 1;
#X connect 14 0 7 0;
#X connect 14 1 5 1;
#X connect 14 2 13 0;
#X connect 15 0 2 0;
#X connect 15 1 8 1;
#X connect 16 0 17 0;
#X connect 16 1 8 1;
#X connect 17 0 18 1;
#X connect 18 0 15 0;
#X connect 18 1 19 0;
#X connect 19 0 20 0;
#X connect 20 0 8 1;
#X connect 21 0 18 0;
#X connect 22 0 18 1;
#X connect 22 0 19 1;
#X restore 93 424 pd \$0-compare;
#X obj 47 424 sel _;
#X obj 46 243 t f f;
#X obj 46 335 t f f;
#X obj 19 165 sel _;
#X obj 89 142 loadbang;
#X msg 89 165 symbol;
#X text 141 167 filter empty symbol;
#X obj 46 222 text size \$0-filter-category-list;
#X obj 47 382 text get \$0-filter-category-list;
#X obj 73 494 text insert \$0-filter-category-list;
#X obj 19 34 t l l b;
#X obj 19 79 until;
#X obj 19 55 list length;
#X obj 19 101 f;
#X obj 45 102 + 1;
#X obj 19 142 list store;
#X msg 19 122 get \$1 1;
#X msg 59 80 0;
#X text 177 425 lexicographical compare;
#X connect 0 0 23 0;
#X connect 1 0 2 0;
#X connect 2 0 3 0;
#X connect 2 0 15 0;
#X connect 3 0 2 1;
#X connect 4 0 2 1;
#X connect 5 0 13 0;
#X connect 7 0 20 0;
#X connect 7 1 4 0;
#X connect 7 2 10 1;
#X connect 7 2 12 1;
#X connect 7 2 13 1;
#X connect 8 0 1 0;
#X connect 9 0 21 0;
#X connect 9 1 11 0;
#X connect 10 0 22 0;
#X connect 11 0 10 0;
#X connect 12 0 1 1;
#X connect 12 0 11 0;
#X connect 13 0 1 1;
#X connect 13 1 12 0;
#X connect 14 0 8 0;
#X connect 14 1 9 1;
#X connect 15 0 9 0;
#X connect 15 1 22 1;
#X connect 16 1 7 0;
#X connect 17 0 18 0;
#X connect 18 0 16 1;
#X connect 20 0 14 0;
#X connect 21 0 5 0;
#X connect 23 0 25 0;
#X connect 23 1 28 1;
#X connect 23 2 30 0;
#X connect 24 0 26 0;
#X connect 25 0 24 0;
#X connect 26 0 27 0;
#X connect 26 0 29 0;
#X connect 27 0 26 1;
#X connect 28 0 16 0;
#X connect 29 0 28 0;
#X connect 30 0 26 1;
#X restore 116 229 pd \$0-update-categories;
#X obj 38 399 s \$0-filter-vendor;
#X obj 48 419 s \$0-filter-category;
#X msg 38 372 0;
#X obj 55 350 s \$0-filter-vendor-nbx;
#X msg 55 329 range 0 \$1;
#X obj 55 306 text size \$0-filter-vendor-list;
#X msg 200 356 range 0 \$1;
#X obj 200 332 text size \$0-filter-category-list;
#X obj 200 377 s \$0-filter-category-nbx;
#X obj 35 474 s \$0-filter-enable;
#X msg 72 451 0;
#X msg 21 450 1;
#X obj 21 282 t b b b b;
#X obj 21 127 t b b;
#X obj 21 48 t b b b;
#X obj 54 72 text size \$0-info;
#X obj 21 96 spigot;
#X obj 39 206 list split 5;
#X connect 0 0 23 0;
#X connect 1 0 26 0;
#X connect 2 0 1 0;
#X connect 5 0 3 0;
#X connect 5 0 4 0;
#X connect 6 1 7 0;
#X connect 11 0 9 0;
#X connect 11 0 10 0;
#X connect 13 0 12 0;
#X connect 14 0 13 0;
#X connect 15 0 17 0;
#X connect 16 0 15 0;
#X connect 19 0 18 0;
#X connect 20 0 18 0;
#X connect 21 0 20 0;
#X connect 21 1 11 0;
#X connect 21 2 14 0;
#X connect 21 2 16 0;
#X connect 21 3 19 0;
#X connect 22 0 21 0;
#X connect 22 1 2 0;
#X connect 23 0 25 0;
#X connect 23 1 24 0;
#X connect 23 2 5 0;
#X connect 24 0 25 1;
#X connect 25 0 22 0;
#X connect 26 0 6 0;
#X connect 26 1 8 0;
#X restore 73 474 pd \$0-update-filters;
#X obj 46 451 t b b;
#X text 236 371 0: VST 2 \, 1: VST3;
#X obj 159 332 list split 4;
#X obj 193 353 t f;
#X obj 193 374 == 51;
#X text 235 354 50 -> 2 \, 51 -> 3;
#N canvas 1030 244 430 552 \$0-select 0;
#X obj 35 22 r \$0-select;
#X obj 94 426 v \$0-select-old;
#X obj 110 170 v \$0-select-old;
#X obj 110 218 pack f \$0;
#X obj 121 367 pack f \$0;
#X msg 110 238 \; \$2-label-\$1 color 0 0 -1;
#X obj 33 165 s \$0-path;
#X obj 110 197 moses 0;
#X obj 35 95 moses 0;
#X obj 33 143 text get \$0-filtered 0;
#X floatatom 146 108 5 0 0 0 - - -;
#X msg 122 387 \; \$2-label-\$1 color 1 0 -1;
#X obj 67 298 moses;
#X obj 67 254 t f b;
#X obj 94 275 v \$0-offset;
#X obj 94 323 moses;
#X obj 94 344 t f f;
#X text 141 328 only update if in view;
#X obj 35 51 t f b;
#X obj 35 72 spigot;
#X obj 82 72 > 0;
#X obj 82 50 text size \$0-filtered;
#X obj 33 121 t f f f b;
#X obj 50 452 text get \$0-filtered-ex;
#X obj 50 480 s \$0-path-label;
#X obj 121 301 +;
#X obj 149 301 r \$0-height;
#X connect 0 0 18 0;
#X connect 2 0 7 0;
#X connect 3 0 5 0;
#X connect 4 0 11 0;
#X connect 7 1 3 0;
#X connect 8 1 22 0;
#X connect 9 0 6 0;
#X connect 10 0 22 0;
#X connect 12 1 15 0;
#X connect 13 0 12 0;
#X connect 13 1 14 0;
#X connect 14 0 12 1;
#X connect 14 0 25 0;
#X connect 15 0 16 0;
#X connect 16 0 1 0;
#X connect 16 1 4 0;
#X connect 18 0 19 0;
#X connect 18 1 21 0;
#X connect 19 0 8 0;
#X connect 20 0 19 1;
#X connect 21 0 20 0;
#X connect 22 0 9 0;
#X connect 22 1 23 0;
#X connect 22 2 13 0;
#X connect 22 3 2 0;
#X connect 23 0 24 0;
#X connect 25 0 15 1;
#X connect 26 0 25 1;
#X restore 411 222 pd \$0-select;
#X text 408 205 select a plugin;
#X text 408 126 handle scrolling;
#X obj 46 129 vstplugin~ -n 0 0;
#X obj 245 466 text define \$0-info-ex;
#X obj 244 509 text define \$0-filtered-ex;
#X obj 365 323 text set \$0-info-ex 1e+007;
#X obj 271 181 s \$0-info-ex;
#X obj 365 299 symbol;
#X text 373 445 info used for filtering;
#X text 391 465 additional info;
#X obj 398 37 r \$0-search-dir;
#X obj 398 58 openpanel 1;
#X obj 398 79 s \$0-search;
#X text 160 401 key \, vendor \, sdkversion \, synth \, bridged \,
categories...;
#X obj 80 378 pack s s f f f;
#X obj 103 269 route vendor sdkversion synth bridged category path
, f 53;
#X text 411 298 path;
#X obj 160 202 t s s;
#X obj 127 12 r \$0-clear-cache;
#X msg 127 33 search_clear 1;
#X connect 0 0 15 0;
#X connect 1 0 25 0;
#X connect 2 0 15 0;
#X connect 3 0 4 0;
#X connect 4 0 42 0;
#X connect 5 0 7 0;
#X connect 5 0 18 0;
#X connect 5 0 46 0;
#X connect 9 0 10 0;
#X connect 11 0 9 0;
#X connect 12 0 17 0;
#X connect 13 0 14 0;
#X connect 15 0 1 0;
#X connect 16 0 33 0;
#X connect 16 1 55 0;
#X connect 16 2 26 0;
#X connect 17 0 13 0;
#X connect 17 1 5 0;
#X connect 25 0 42 0;
#X connect 25 1 17 0;
#X connect 26 0 57 0;
#X connect 27 0 35 0;
#X connect 28 0 54 1;
#X connect 29 0 27 0;
#X connect 30 0 8 0;
#X connect 31 0 30 1;
#X connect 33 0 22 0;
#X connect 33 1 32 0;
#X connect 35 1 36 0;
#X connect 36 0 37 0;
#X connect 37 0 54 2;
#X connect 42 0 16 0;
#X connect 47 0 45 0;
#X connect 50 0 51 0;
#X connect 51 0 52 0;
#X connect 54 0 30 0;
#X connect 55 0 28 0;
#X connect 55 1 29 0;
#X connect 55 2 54 3;
#X connect 55 3 54 4;
#X connect 55 4 31 0;
#X connect 55 5 47 0;
#X connect 57 0 54 0;
#X connect 57 1 3 0;
#X connect 58 0 59 0;
#X connect 59 0 42 0;
#X restore 101 377 pd \$0-search;
#N canvas 53 53 514 435 \$0-plugins 0;
#N canvas 435 260 711 403 \$0-filter 0;
#X symbolatom 111 123 28 0 0 2 Keyword #0-filter-keyword-in #0-filter-keyword-out
;
#X obj 104 205 loadbang;
#X obj 481 123 bng 15 250 50 0 \$0-filter-vendor-minus \$0-dummy ‹
4 7 0 14 -262144 -1 -1;
#X obj 511 123 bng 15 250 50 0 \$0-filter-vendor-plus \$0-dummy ›
4 7 0 14 -262144 -1 -1;
#X obj 481 156 bng 15 250 50 0 \$0-filter-category-minus \$0-dummy
‹ 4 7 0 14 -262144 -1 -1;
#X obj 511 156 bng 15 250 50 0 \$0-filter-category-plus \$0-dummy ›
4 7 0 14 -262144 -1 -1;
#X obj 292 123 cnv 15 170 15 empty empty empty 20 12 0 14 -233017 -66577
0;
#X symbolatom 292 123 28 0 0 2 Vendor #0-filter-vendor-label #0-filter-vendor-out
;
#X obj 292 156 cnv 15 170 15 empty empty empty 20 12 0 14 -233017 -66577
0;
#X symbolatom 292 156 28 0 0 2 Category #0-filter-category-label #0-filter-category-out
;
#X obj 410 280 s \$0-filter-category;
#X obj 403 255 s \$0-filter-vendor;
#X obj 104 249 s \$0-filter-keyword-in;
#X msg 104 228 symbol;
#X obj 220 144 tgl 15 0 \$0-filter-native \$0-filter-native native
17 7 0 10 -262144 -1 -1 1 1;
#X obj 220 159 tgl 15 0 \$0-filter-bridged \$0-filter-bridged bridged
17 7 0 10 -262144 -1 -1 1 1;
#X obj 466 123 bng 15 250 50 0 \$0-filter-vendor-minus-page \$0-dummy
« 4 7 0 14 -262144 -1 -1;
#X obj 526 123 bng 15 250 50 0 \$0-filter-vendor-plus-page \$0-dummy
» 4 7 0 14 -262144 -1 -1;
#X obj 466 156 bng 15 250 50 0 \$0-filter-category-minus-page \$0-dummy
« 4 7 0 14 -262144 -1 -1;
#X obj 526 156 bng 15 250 50 0 \$0-filter-category-plus-page \$0-dummy
» 4 7 0 14 -262144 -1 -1;
#X obj 496 123 bng 15 250 50 0 \$0-filter-vendor-all \$0-dummy empty
17 7 0 10 -257985 -1 -1;
#X obj 496 156 bng 15 250 50 0 \$0-filter-category-all \$0-dummy empty
4 7 0 14 -257985 -1 -1;
#X obj 112 144 tgl 15 0 \$0-filter-vst2 \$0-filter-vst2 VST2 17 7 0
10 -262144 -1 -1 1 1;
#X obj 164 159 tgl 15 0 \$0-filter-synth \$0-filter-synth synth 17
7 0 10 -262144 -1 -1 1 1;
#X obj 112 159 tgl 15 0 \$0-filter-vst3 \$0-filter-vst3 VST3 17 7 0
10 -262144 -1 -1 1 1;
#X obj 164 144 tgl 15 0 \$0-filter-fx \$0-filter-fx FX 17 7 0 10 -262144
-1 -1 1 1;
#X obj 403 209 loadbang;
#X msg 403 230 0;
#X obj 255 205 loadbang;
#X obj 255 226 f \$0;
#X obj 289 227 bng 15 250 50 0 empty empty empty 17 7 0 10 -262144
-1 -1;
#X msg 255 247 \; \$1-filter-vst2 1 \; \$1-filter-vst3 1 \; \$1-filter-synth
1 \; \$1-filter-fx 1 \; \$1-filter-native 1 \; \$1-filter-bridged 1
;
#X connect 1 0 13 0;
#X connect 13 0 12 0;
#X connect 26 0 27 0;
#X connect 27 0 11 0;
#X connect 27 0 10 0;
#X connect 28 0 29 0;
#X connect 29 0 31 0;
#X connect 30 0 29 0;
#X coords 0 -1 1 1 450 80 2 100 100;
#X restore 26 15 pd \$0-filter;
#N canvas 288 337 450 300 \$0-plugin-list 0;
#X coords 0 0 435 300 435 300 2 0 0;
#X restore 41 95 pd \$0-plugin-list;
#X obj 26 127 vsl 15 235 1290 0 0 0 \$0-scroll \$0-scroll-bar empty
0 -9 0 10 -262144 -1 -1 23400 0;
#X obj 26 95 bng 15 250 50 0 \$0-scroll-page-up \$0-scroll-page-up
« 4 7 0 14 -191407 -1 -1;
#X obj 26 110 bng 15 250 50 0 \$0-scroll-up \$0-scroll-up ‹ 4 7 0
14 -228856 -1 -1;
#X obj 26 365 bng 15 250 50 0 \$0-scroll-down \$0-scroll-down › 4
7 0 14 -228856 -1 -1;
#X obj 26 380 bng 15 250 50 0 \$0-scroll-page-down \$0-scroll-page-down
» 4 7 0 14 -191407 -1 -1;
#X obj 26 396 cnv 10 450 20 empty empty Path: 4 10 0 10 -228856 -1
0;
#X symbolatom 64 398 67 0 0 0 - #0-path-label #0-path-label-out;
#X restore 101 354 pd \$0-plugins;
#X obj 176 406 loadbang;
#X obj 176 448 route symbol;
#X msg 176 469 1;
#X obj 126 468 spigot;
#X obj 100 421 t a a;
#X obj 176 427 list append \$1;
#X obj 126 489 s \$1;
#X obj 107 279 tgl 15 0 \$0-threaded \$0-threaded threaded 18 7 0 10
-262144 -1 -1 0 1;
#X obj 194 249 vradio 15 1 0 3 \$0-mode \$0-mode empty 0 -8 0 10 -262144
-1 -1 0;
#X obj 290 348 loadbang;
#X obj 290 369 f \$0;
#X obj 214 255 cnv 5 1 1 empty empty normal 0 0 0 10 -262144 -1 0;
#X obj 214 287 cnv 5 1 1 empty empty bridge 0 0 0 10 -262144 -1 0;
#X obj 214 271 cnv 5 1 1 empty empty sandbox 0 0 0 10 -262144 -1 0
;
#X obj 107 264 tgl 15 0 \$0-async \$0-async async 18 7 0 10 -262144
-1 -1 1 1;
#X msg 290 390 \; \$1-editor 1 \; \$1-mode 0 \; \$1-threaded 0 \; \$1-async
1 \; \$1-path-label symbol \; \$1-height 20;
#X obj 326 370 bng 15 250 50 0 empty empty empty 17 7 0 10 -262144
-1 -1;
#X obj 107 207 bng 15 250 50 0 \$0-clear-cache empty clear plugin cache
18 7 0 10 -128992 -1 -1;
#X connect 8 0 16 0;
#X connect 12 0 17 0;
#X connect 13 0 14 0;
#X connect 14 0 15 1;
#X connect 15 0 18 0;
#X connect 16 0 9 0;
#X connect 16 1 15 0;
#X connect 17 0 13 0;
#X connect 21 0 22 0;
#X connect 22 0 27 0;
#X connect 28 0 22 0;
#X coords 0 -1 1 1 184 200 2 100 100;
