#N canvas 580 85 533 590 12;
#X obj 29 216 noise~;
#X obj 29 240 *~ 0.5;
#X obj 101 217 noise~;
#X obj 101 241 *~ 0.25;
#X obj 30 405 env~;
#X floatatom 30 429 5 0 0 0 - - - 0;
#X obj 93 406 env~;
#X floatatom 93 430 5 0 0 0 - - - 0;
#X obj 19 19 cnv 15 165 25 empty empty empty 20 12 0 14 #e0e0e0 #404040 0;
#X text 26 23 Multichannel support:;
#X obj 30 379 snake~ out 4, f 28;
#X obj 171 216 noise~;
#X obj 242 215 noise~;
#X obj 29 265 snake~ in 4, f 31;
#X obj 171 240 *~ 0.1;
#X obj 242 239 *~ 0.05;
#X obj 159 408 env~;
#X floatatom 159 432 5 0 0 0 - - - 0;
#X obj 223 407 env~;
#X floatatom 223 431 5 0 0 0 - - - 0;
#X obj 30 349 vstplugin~ -m 4 4;
#X text 22 92 The number of input channels is not really important since it will be automatically deduced from the input signal.;
#X msg 45 320 channels \$1;
#X floatatom 45 294 5 0 4 0 - - - 0;
#X text 141 298 Dynamically change the number of output channels.;
#X obj 137 319 cnv 15 45 20 empty empty empty 20 12 0 14 #f8fc00 #404040 0;
#X text 142 320 NOTE: This may cause a DSP graph update!, f 42;
#X text 24 186 Example: 4 input channels + 4 output channels;
#X text 24 505 Example: 2 input and 2 output busses \, with 4 channels each;
#X obj 30 532 vstplugin~ -m -i 2 4 4 -o 2 4 4;
#X obj 292 533 vstplugin~ -i 2 4 4 -o 2 4 4;
#X text 262 532 VS;
#X text 22 126 The number of input channels \, however \, must be specified explicitly \, either with a creation argument or dynamically with the "channels" method.;
#X text 24 465 With multiple input/output busses \, every input and output bus is represented by a single (multichannel) signal inlet/outlet., f 62;
#X text 23 55 The -m flag enables the multichannel mode where input and output channels are represented by multichannel signals.;
#X connect 0 0 1 0;
#X connect 1 0 13 0;
#X connect 2 0 3 0;
#X connect 3 0 13 1;
#X connect 4 0 5 0;
#X connect 6 0 7 0;
#X connect 10 0 4 0;
#X connect 10 1 6 0;
#X connect 10 2 16 0;
#X connect 10 3 18 0;
#X connect 11 0 14 0;
#X connect 12 0 15 0;
#X connect 13 0 20 0;
#X connect 14 0 13 2;
#X connect 15 0 13 3;
#X connect 16 0 17 0;
#X connect 18 0 19 0;
#X connect 20 0 10 0;
#X connect 22 0 20 0;
#X connect 23 0 22 0;
