#N canvas 531 96 473 481 10;
#X obj 107 127 bng 15 250 50 0 \$0-plugins-show empty show plug-ins
18 7 0 10 -257985 -1 -1;
#X obj 107 147 bng 15 250 50 0 \$0-search empty search VST directories
18 7 0 10 -191407 -1 -1;
#X obj 107 167 bng 15 250 50 0 \$0-search-dir empty search user directory
18 7 0 10 -228856 -1 -1;
#X obj 107 187 bng 15 250 50 0 \$0-file empty search plug-in file
18 7 0 10 -262144 -1 -1;
#X obj 107 228 tgl 15 0 \$0-editor \$0-editor editor 18 7 0 10 -262144
-1 -1 0 1;
#X obj 101 101 cnv 15 178 20 empty empty vstpluginbrowser 5 10 0 14
-228856 -99865 0;
#X obj 226 228 bng 15 250 50 0 \$0-open empty open 18 7 0 10 -4034
-1 -1;
#X symbolatom 107 208 26 0 0 0 - #0-path #0-path-out;
#N canvas 241 280 450 376 \$0-open 0;
#X obj 51 261 outlet;
#X obj 211 8 r \$0-file;
#X obj 53 5 r \$0-open;
#X obj 211 29 openpanel;
#X obj 51 172 list prepend;
#X obj 51 239 list trim;
#X obj 120 99 sel 1 0;
#X msg 120 123 open -e;
#X msg 139 145 open;
#X obj 121 7 r \$0-path-out;
#X obj 51 67 symbol;
#X obj 120 28 route bang;
#X msg 120 50 symbol;
#X obj 211 50 s \$0-path;
#X obj 51 217 list append;
#X obj 114 195 r \$0-async;
#X obj 120 77 r \$0-editor;
#X connect 1 0 3 0;
#X connect 2 0 10 0;
#X connect 3 0 13 0;
#X connect 4 0 14 0;
#X connect 5 0 0 0;
#X connect 6 0 7 0;
#X connect 6 1 8 0;
#X connect 7 0 4 1;
#X connect 8 0 4 1;
#X connect 9 0 11 0;
#X connect 10 0 4 0;
#X connect 11 0 12 0;
#X connect 11 1 10 1;
#X connect 12 0 10 1;
#X connect 14 0 5 0;
#X connect 15 0 14 1;
#X connect 16 0 6 0;
#X restore 99 306 pd \$0-open;
#X obj 99 348 outlet;
#N canvas 742 179 468 577 \$0-search 0;
#X obj 45 64 r \$0-search;
#X obj 45 111 list trim;
#X obj 12 33 bng 15 250 50 0 empty empty empty 17 7 0 10 -262144 -1
-1;
#X obj 186 251 list prepend info;
#X obj 186 272 list trim;
#X msg 252 147 clear;
#X obj 47 35 text define \$0-info;
#X obj 259 188 s \$0-info;
#X obj 79 452 text set \$0-info 1e+007;
#X msg 201 45 vis 1;
#X obj 201 66 s pd-\$0-plugins;
#X obj 201 23 r \$0-plugins-show;
#X obj 189 97 loadbang;
#X msg 189 142 symbol;
#X obj 189 163 s \$0-path;
#X obj 45 85 list prepend search -a;
#X obj 45 187 route search_done info plugin;
#X obj 189 118 t b b;
#X obj 251 168 s pd-\$0-plugin-list;
#N canvas 0 50 450 300 \$0-searchdir 0;
#X obj 37 33 r \$0-search-dir;
#X obj 37 57 openpanel;
#X obj 64 99 list fromsymbol;
#X obj 64 209 array set \$0-dirbuf;
#X obj 37 78 t b s;
#X obj 64 120 t l l;
#X obj 118 186 array size \$0-dirbuf;
#X obj 37 234 f;
#X obj 91 143 list length;
#X obj 91 165 t f f;
#X obj 56 279 until;
#X obj 56 300 f;
#X obj 84 301 + 1;
#X msg 96 278 0;
#X obj 37 256 t b f b;
#X obj 56 391 spigot;
#X obj 83 367 == 47;
#X obj 37 416 f;
#X obj 37 461 array get \$0-dirbuf;
#X msg 37 437 0 \$1;
#X text 67 234 find last /;
#X text 71 435 get directory;
#X obj 37 482 list tosymbol;
#X obj 106 58 array define \$0-dirbuf 1000;
#X obj 83 345 tabread \$0-dirbuf;
#X obj 56 321 t f f;
#X obj 37 503 s \$0-search;
#X connect 0 0 1 0;
#X connect 1 0 4 0;
#X connect 2 0 5 0;
#X connect 4 0 7 0;
#X connect 4 1 2 0;
#X connect 5 0 3 0;
#X connect 5 1 8 0;
#X connect 7 0 14 0;
#X connect 8 0 9 0;
#X connect 9 0 7 1;
#X connect 9 1 6 0;
#X connect 10 0 11 0;
#X connect 11 0 12 0;
#X connect 11 0 25 0;
#X connect 12 0 11 1;
#X connect 13 0 11 1;
#X connect 14 0 17 0;
#X connect 14 1 10 0;
#X connect 14 2 13 0;
#X connect 15 0 17 1;
#X connect 16 0 15 1;
#X connect 17 0 19 0;
#X connect 18 0 22 0;
#X connect 19 0 18 0;
#X connect 22 0 26 0;
#X connect 24 0 16 0;
#X connect 25 0 15 0;
#X connect 25 1 24 0;
#X restore 328 29 pd \$0-searchdir;
#X obj 48 13 text define \$0-filtered;
#X text 326 9 search directory;
#N canvas 709 317 419 461 \$0-filter 0;
#X obj 57 111 text sequence \$0-info;
#X msg 57 83 line 0 \, bang;
#X obj 113 56 s \$0-filtered;
#X msg 113 35 clear;
#X obj 39 10 r \$0-filter;
#X obj 39 38 t b b b;
#X text 125 423 update scroll view;
#X obj 205 61 s \$0-select;
#X msg 205 39 -1;
#N canvas 783 167 674 484 \$0-filter-type 0;
#X obj 21 45 v \$0-filter-type;
#X obj 20 22 text define -k \$0-filter-type-list;
#A set VST \; VSTi \; VST3 \; VST3i \;;
#X obj 136 56 r \$0-filter-type-minus;
#X obj 274 97 r \$0-filter-type-plus;
#X obj 136 83 v \$0-filter-type;
#X obj 136 106 - 1;
#X obj 136 127 max 0;
#X obj 73 230 loadbang;
#X msg 348 46 0;
#X obj 274 142 v \$0-filter-type;
#X obj 274 166 + 1;
#X obj 274 187 min;
#X obj 274 118 t b b;
#X obj 303 166 text size \$0-filter-type-list;
#X obj 136 232 r \$0-filter-type;
#X obj 136 446 s \$0-filter-type-label;
#X obj 175 400 text get \$0-filter-type-list;
#X obj 136 357 moses 1;
#X msg 136 421 symbol All;
#X obj 175 378 - 1;
#X obj 348 25 r \$0-filter-type-reset;
#X obj 207 369 s \$0-filter;
#X msg 73 251 0;
#X obj 274 212 s \$0-filter-type;
#X obj 136 148 s \$0-filter-type;
#X obj 348 70 s \$0-filter-type;
#X obj 207 346 spigot;
#X obj 240 324 r \$0-filter-enable;
#X obj 170 303 s \$0-filter-type-nbx;
#X msg 170 281 set \$1;
#X obj 136 259 t f f f f;
#X obj 219 282 v \$0-filter-type;
#X connect 2 0 4 0;
#X connect 3 0 12 0;
#X connect 4 0 5 0;
#X connect 5 0 6 0;
#X connect 6 0 24 0;
#X connect 7 0 22 0;
#X connect 8 0 25 0;
#X connect 9 0 10 0;
#X connect 10 0 11 0;
#X connect 11 0 23 0;
#X connect 12 0 9 0;
#X connect 12 1 13 0;
#X connect 13 0 11 1;
#X connect 14 0 30 0;
#X connect 16 0 15 0;
#X connect 17 0 18 0;
#X connect 17 1 19 0;
#X connect 18 0 15 0;
#X connect 19 0 16 0;
#X connect 20 0 8 0;
#X connect 22 0 17 0;
#X connect 26 0 21 0;
#X connect 27 0 26 1;
#X connect 29 0 28 0;
#X connect 30 0 17 0;
#X connect 30 1 26 0;
#X connect 30 2 29 0;
#X connect 30 3 31 0;
#X restore 218 127 pd \$0-filter-type;
#N canvas 792 107 676 461 \$0-filter-vendor 0;
#X obj 117 146 - 1;
#X obj 117 167 max 0;
#X obj 58 224 loadbang;
#X msg 58 245 0;
#X obj 274 167 + 1;
#X obj 274 188 min;
#X obj 274 118 t b b;
#X obj 117 42 text define \$0-filter-vendor-list;
#X obj 118 65 v \$0-filter-vendor;
#X obj 116 96 r \$0-filter-vendor-minus;
#X obj 274 97 r \$0-filter-vendor-plus;
#X obj 304 167 text size \$0-filter-vendor-list;
#X obj 274 142 v \$0-filter-vendor;
#X obj 116 122 v \$0-filter-vendor;
#X obj 119 355 moses 1;
#X msg 119 425 symbol All;
#X obj 120 223 r \$0-filter-vendor;
#X obj 158 403 text get \$0-filter-vendor-list;
#X obj 119 450 s \$0-filter-vendor-label;
#X obj 158 379 - 1;
#X obj 431 100 r \$0-filter-vendor-reset;
#X msg 431 121 0;
#X obj 186 364 s \$0-filter;
#X obj 186 340 spigot;
#X obj 219 318 r \$0-filter-enable;
#X obj 274 213 s \$0-filter-vendor;
#X obj 431 142 s \$0-filter-vendor;
#X obj 117 188 s \$0-filter-vendor;
#X msg 159 268 set \$1;
#X obj 159 289 s \$0-filter-vendor-nbx;
#X obj 120 246 t f f f f;
#X obj 211 268 v \$0-filter-vendor;
#X connect 0 0 1 0;
#X connect 1 0 27 0;
#X connect 2 0 3 0;
#X connect 3 0 14 0;
#X connect 4 0 5 0;
#X connect 5 0 25 0;
#X connect 6 0 12 0;
#X connect 6 1 11 0;
#X connect 9 0 13 0;
#X connect 10 0 6 0;
#X connect 11 0 5 1;
#X connect 12 0 4 0;
#X connect 13 0 0 0;
#X connect 14 0 15 0;
#X connect 14 1 19 0;
#X connect 15 0 18 0;
#X connect 16 0 30 0;
#X connect 17 0 18 0;
#X connect 19 0 17 0;
#X connect 20 0 21 0;
#X connect 21 0 26 0;
#X connect 23 0 22 0;
#X connect 24 0 23 1;
#X connect 28 0 29 0;
#X connect 30 0 14 0;
#X connect 30 1 23 0;
#X connect 30 2 28 0;
#X connect 30 3 31 0;
#X restore 218 154 pd \$0-filter-vendor;
#N canvas 513 90 721 476 \$0-filter-category 0;
#X obj 105 146 - 1;
#X obj 105 167 max 0;
#X obj 56 219 loadbang;
#X msg 56 240 0;
#X obj 274 167 + 1;
#X obj 274 188 min;
#X obj 274 118 t b b;
#X obj 20 22 text define \$0-filter-category-list;
#X obj 21 45 v \$0-filter-category;
#X obj 274 97 r \$0-filter-category-plus;
#X obj 104 96 r \$0-filter-category-minus;
#X obj 104 122 v \$0-filter-category;
#X obj 115 219 r \$0-filter-category;
#X obj 304 167 text size \$0-filter-category-list;
#X obj 274 142 v \$0-filter-category;
#X obj 154 418 text get \$0-filter-category-list;
#X obj 115 440 s \$0-filter-category-label;
#X obj 115 354 moses 1;
#X msg 115 376 symbol All;
#X obj 154 397 - 1;
#X obj 403 26 r \$0-filter-category-reset;
#X msg 403 47 0;
#X obj 105 188 s \$0-filter-category;
#X obj 274 214 s \$0-filter-category;
#X obj 403 68 s \$0-filter-category;
#X obj 180 333 spigot;
#X obj 213 310 r \$0-filter-enable;
#X obj 180 354 s \$0-filter;
#X msg 154 262 set \$1;
#X obj 154 283 s \$0-filter-category-nbx;
#X obj 115 239 t f f f f;
#X obj 202 261 v \$0-filter-category;
#X connect 0 0 1 0;
#X connect 1 0 22 0;
#X connect 2 0 3 0;
#X connect 3 0 17 0;
#X connect 4 0 5 0;
#X connect 5 0 23 0;
#X connect 6 0 14 0;
#X connect 6 1 13 0;
#X connect 9 0 6 0;
#X connect 10 0 11 0;
#X connect 11 0 0 0;
#X connect 12 0 30 0;
#X connect 13 0 5 1;
#X connect 14 0 4 0;
#X connect 15 0 16 0;
#X connect 17 0 18 0;
#X connect 17 1 19 0;
#X connect 18 0 16 0;
#X connect 19 0 15 0;
#X connect 20 0 21 0;
#X connect 21 0 24 0;
#X connect 25 0 27 0;
#X connect 26 0 25 1;
#X connect 28 0 29 0;
#X connect 30 0 17 0;
#X connect 30 1 25 0;
#X connect 30 2 28 0;
#X connect 30 3 31 0;
#X restore 217 181 pd \$0-filter-category;
#X obj 57 221 text set \$0-filtered 1e+007;
#X text 68 270 select first plugin;
#N canvas 748 36 790 661 \$0-keyword 0;
#X obj 37 37 inlet;
#X obj 38 482 outlet;
#X obj 109 35 r \$0-filter-keyword-out;
#X obj 37 81 s;
#X obj 52 455 r \$0-keyword-pass;
#X obj 109 59 sel _;
#X obj 168 59 loadbang;
#X msg 168 80 symbol;
#X obj 109 102 symbol \$0-keyword-pass;
#X obj 38 149 r \$0-keyword-filter;
#X obj 38 431 spigot;
#X obj 65 328 list store;
#X text 149 193 name + vendor;
#X obj 65 261 until;
#X obj 65 282 f;
#X obj 93 281 + 1;
#X msg 65 302 get \$1 1;
#X obj 38 171 t l l b;
#X msg 72 410 0;
#X obj 65 194 list split 2;
#X obj 65 215 t l l b;
#X obj 65 239 list length;
#X msg 105 260 0;
#N canvas 605 129 404 644 \$0-find 0;
#X obj 34 36 inlet;
#X obj 61 594 outlet;
#X obj 137 70 r \$0-filter-keyword-out;
#X obj 137 91 list fromsymbol;
#X msg 78 430 get \$1 1;
#X obj 78 339 until;
#X obj 78 454 list store;
#X obj 78 362 f;
#X obj 106 363 + 1;
#X obj 137 115 list length;
#X obj 34 61 list fromsymbol;
#X obj 34 144 -;
#X obj 34 111 list length;
#X obj 78 407 +;
#X msg 153 430 get \$1 1;
#X obj 153 454 list store;
#X obj 78 383 t f f;
#X obj 61 234 until;
#X obj 61 211 t f b;
#X obj 61 255 f;
#X obj 88 257 + 1;
#X msg 98 235 0;
#X obj 34 85 t l l;
#X obj 61 285 t b b f b;
#X msg 130 341 0;
#X obj 78 480 !=;
#X obj 78 501 sel 1;
#X obj 61 544 spigot;
#X msg 113 522 1;
#X msg 78 521 0;
#X obj 61 569 t b b;
#X text 107 481 break on character mismatch;
#X text 70 142 max offset: haystack size - needle size;
#X obj 34 166 moses;
#X obj 61 188 + 1;
#X text 71 164 the needle must not larger than the haystack;
#X text 104 569 success! stop all iterations;
#X text 135 51 needle;
#X text 74 36 haystack;
#X obj 78 312 f;
#X connect 0 0 10 0;
#X connect 2 0 3 0;
#X connect 3 0 9 0;
#X connect 3 0 15 1;
#X connect 4 0 6 0;
#X connect 5 0 7 0;
#X connect 6 0 25 0;
#X connect 7 0 8 0;
#X connect 7 0 16 0;
#X connect 8 0 7 1;
#X connect 9 0 11 1;
#X connect 9 0 39 1;
#X connect 10 0 22 0;
#X connect 11 0 33 0;
#X connect 12 0 11 0;
#X connect 13 0 4 0;
#X connect 14 0 15 0;
#X connect 15 0 25 1;
#X connect 16 0 13 0;
#X connect 16 1 14 0;
#X connect 17 0 19 0;
#X connect 18 0 17 0;
#X connect 18 1 21 0;
#X connect 19 0 20 0;
#X connect 19 0 23 0;
#X connect 20 0 19 1;
#X connect 21 0 19 1;
#X connect 22 0 12 0;
#X connect 22 1 6 1;
#X connect 23 0 27 0;
#X connect 23 1 39 0;
#X connect 23 2 13 1;
#X connect 23 3 24 0;
#X connect 23 3 28 0;
#X connect 24 0 7 1;
#X connect 25 0 26 0;
#X connect 26 0 29 0;
#X connect 27 0 30 0;
#X connect 28 0 27 1;
#X connect 29 0 27 1;
#X connect 30 0 1 0;
#X connect 30 1 5 1;
#X connect 30 1 17 1;
#X connect 33 1 34 0;
#X connect 34 0 18 0;
#X connect 39 0 5 0;
#X restore 65 355 pd \$0-find;
#X msg 65 381 1;
#X obj 145 387 bng 15 250 50 0 empty empty empty 17 7 0 10 -262144
-1 -1;
#X obj 136 81 b;
#X text 135 353 stop iteration on success!;
#X obj 136 124 symbol \$0-keyword-filter;
#X connect 0 0 3 0;
#X connect 2 0 5 0;
#X connect 4 0 1 0;
#X connect 5 0 8 0;
#X connect 5 1 26 0;
#X connect 6 0 7 0;
#X connect 7 0 5 1;
#X connect 8 0 3 1;
#X connect 9 0 17 0;
#X connect 10 0 1 0;
#X connect 11 0 23 0;
#X connect 13 0 14 0;
#X connect 14 0 15 0;
#X connect 14 0 16 0;
#X connect 15 0 14 1;
#X connect 16 0 11 0;
#X connect 17 0 10 0;
#X connect 17 1 19 0;
#X connect 17 2 18 0;
#X connect 18 0 10 1;
#X connect 19 0 20 0;
#X connect 20 0 21 0;
#X connect 20 1 11 1;
#X connect 20 2 22 0;
#X connect 21 0 13 0;
#X connect 22 0 14 1;
#X connect 23 0 13 1;
#X connect 23 0 24 0;
#X connect 23 0 25 0;
#X connect 24 0 10 1;
#X connect 26 0 28 0;
#X connect 28 0 3 1;
#X restore 57 133 pd \$0-keyword;
#N canvas 273 322 450 412 \$0-type 0;
#X obj 37 28 inlet;
#X obj 37 398 outlet;
#X obj 37 373 spigot;
#X msg 70 232 1;
#X obj 56 79 list split 2;
#X obj 37 56 t l l b;
#X obj 55 188 s;
#X obj 83 130 v \$0-filter-type;
#X obj 83 151 pack f \$0;
#X msg 83 172 symbol \$2-type-\$1;
#X obj 70 209 r \$0-type-0;
#X obj 101 234 r \$0-type-1;
#X obj 55 103 list split 2;
#X obj 101 256 expr !$f1 && !$f2;
#X obj 113 277 r \$0-type-2;
#X obj 130 321 r \$0-type-3;
#X obj 143 366 r \$0-type-4;
#X obj 113 299 expr !$f1 && $f2;
#X text 175 232 VST;
#X text 187 277 VSTi;
#X text 205 321 VST3;
#X text 218 367 VST3i;
#X obj 130 343 expr $f1 && !$f2;
#X obj 143 388 expr $f1 && $f2;
#X text 147 210 All;
#X connect 0 0 5 0;
#X connect 2 0 1 0;
#X connect 3 0 2 1;
#X connect 4 1 12 0;
#X connect 5 0 2 0;
#X connect 5 1 4 0;
#X connect 5 2 7 0;
#X connect 7 0 8 0;
#X connect 8 0 9 0;
#X connect 9 0 6 1;
#X connect 10 0 3 0;
#X connect 11 0 13 0;
#X connect 12 0 6 0;
#X connect 13 0 2 1;
#X connect 14 0 17 0;
#X connect 15 0 22 0;
#X connect 16 0 23 0;
#X connect 17 0 2 1;
#X connect 22 0 2 1;
#X connect 23 0 2 1;
#X restore 57 154 pd \$0-type;
#N canvas 497 465 450 300 \$0-vendor 0;
#X obj 51 40 inlet;
#X obj 51 241 outlet;
#X obj 70 87 v \$0-filter-vendor;
#X obj 70 108 moses 1;
#X obj 51 206 spigot;
#X msg 84 183 1;
#X obj 51 61 t l b l;
#X obj 123 109 unpack s s;
#X obj 109 199 sel _;
#X obj 109 133 - 1;
#X obj 109 154 text get \$0-filter-vendor-list;
#X obj 109 175 t s;
#X msg 136 220 0;
#X connect 0 0 6 0;
#X connect 2 0 3 0;
#X connect 3 0 5 0;
#X connect 3 1 9 0;
#X connect 4 0 1 0;
#X connect 5 0 4 1;
#X connect 6 0 4 0;
#X connect 6 1 2 0;
#X connect 6 2 7 0;
#X connect 7 1 8 1;
#X connect 8 0 5 0;
#X connect 8 1 12 0;
#X connect 9 0 10 0;
#X connect 10 0 11 0;
#X connect 11 0 8 0;
#X connect 12 0 4 1;
#X restore 57 176 pd \$0-vendor;
#N canvas 880 244 450 452 \$0-category 0;
#X obj 38 28 inlet;
#X obj 38 390 outlet;
#X obj 57 107 moses 1;
#X obj 38 361 spigot;
#X msg 57 337 1;
#X obj 38 55 t l b l;
#X obj 96 132 - 1;
#X msg 81 360 0;
#X obj 96 153 text get \$0-filter-category-list;
#X obj 57 81 v \$0-filter-category;
#X obj 113 105 list split 4;
#X obj 96 283 list store;
#X obj 96 174 t b s b;
#X obj 96 306 sel _;
#X obj 96 197 f;
#X obj 147 127 list length;
#X obj 96 218 until;
#X obj 96 239 f;
#X obj 122 238 + 1;
#X msg 136 218 0;
#X msg 96 260 get \$1 1;
#X connect 0 0 5 0;
#X connect 2 0 4 0;
#X connect 2 1 6 0;
#X connect 3 0 1 0;
#X connect 4 0 3 1;
#X connect 5 0 3 0;
#X connect 5 1 9 0;
#X connect 5 2 10 0;
#X connect 6 0 8 0;
#X connect 7 0 3 1;
#X connect 8 0 12 0;
#X connect 9 0 2 0;
#X connect 10 1 11 1;
#X connect 10 1 15 0;
#X connect 11 0 13 0;
#X connect 12 0 14 0;
#X connect 12 1 13 1;
#X connect 12 2 7 0;
#X connect 12 2 19 0;
#X connect 13 0 4 0;
#X connect 13 0 16 1;
#X connect 14 0 16 0;
#X connect 15 0 14 1;
#X connect 16 0 17 0;
#X connect 17 0 18 0;
#X connect 17 0 20 0;
#X connect 18 0 17 1;
#X connect 19 0 17 1;
#X connect 20 0 11 0;
#X restore 57 198 pd \$0-category;
#N canvas 248 133 450 300 \$0-filter-keyword 0;
#X obj 33 33 r \$0-filter-keyword-out;
#X obj 33 75 spigot;
#X obj 66 54 r \$0-filter-enable;
#X obj 33 117 del 0;
#X obj 33 138 s \$0-filter;
#X text 72 117 because of unspecified receive order!;
#X obj 33 96 b;
#X connect 0 0 1 0;
#X connect 1 0 6 0;
#X connect 2 0 1 1;
#X connect 3 0 4 0;
#X connect 6 0 3 0;
#X restore 216 103 pd \$0-filter-keyword;
#X obj 117 295 text size \$0-filtered;
#X obj 39 246 t b b;
#X obj 117 340 max 0;
#X msg 148 384 range \$1 0;
#X msg 117 405 0;
#X obj 117 318 - 40;
#X obj 117 362 t b f f;
#X obj 172 363 s \$0-scroll-size;
#X obj 117 442 s \$0-scroll-bar;
#X obj 148 404 s \$0-scroll-bar;
#X obj 39 294 s \$0-select;
#X msg 39 270 0;
#X connect 0 0 14 0;
#X connect 1 0 0 0;
#X connect 3 0 2 0;
#X connect 4 0 5 0;
#X connect 5 0 20 0;
#X connect 5 1 1 0;
#X connect 5 2 3 0;
#X connect 5 2 8 0;
#X connect 8 0 7 0;
#X connect 14 0 15 0;
#X connect 15 0 16 0;
#X connect 16 0 17 0;
#X connect 17 0 12 0;
#X connect 19 0 24 0;
#X connect 20 0 30 0;
#X connect 20 1 19 0;
#X connect 21 0 25 0;
#X connect 22 0 28 0;
#X connect 23 0 27 0;
#X connect 24 0 21 0;
#X connect 25 0 23 0;
#X connect 25 1 22 0;
#X connect 25 2 26 0;
#X connect 30 0 29 0;
#X restore 327 107 pd \$0-filter;
#N canvas 999 333 516 453 \$0-scroll 0;
#X obj 39 163 text size \$0-filtered;
#X obj 122 207 loadbang;
#X obj 22 182 swap;
#X obj 22 206 -;
#X obj 61 251 min 40;
#X obj 57 140 v \$0-offset;
#N canvas 956 86 365 468 \$0-make-buttons 0;
#X obj 24 17 inlet;
#X obj 156 245 pointer;
#X msg 155 225 traverse \$1 \, bang;
#X obj 23 69 until;
#X obj 23 94 f;
#X obj 54 96 + 1;
#X msg 62 71 0;
#X obj 59 141 * 15;
#X msg 69 17 10;
#X obj 24 42 t f b b;
#X obj 156 203 symbol pd-\$0-plugin-list;
#X obj 59 164 + 0;
#X obj 41 187 v \$0-offset;
#X obj 21 207 +;
#X obj 23 114 t f b f;
#X obj 21 349 route click;
#X obj 21 396 get \$0-button id;
#X obj 21 417 s \$0-select;
#X obj 21 373 t p;
#X obj 20 302 filledpolygon 999 0 1 0 0 400 0 400 15 0 15;
#X obj 21 272 append \$0-button id y x;
#X obj 21 243 pack f f 0;
#X obj 21 326 struct \$0-button float x float y float id;
#X connect 0 0 9 0;
#X connect 1 0 20 3;
#X connect 2 0 1 0;
#X connect 3 0 4 0;
#X connect 4 0 5 0;
#X connect 4 0 14 0;
#X connect 5 0 4 1;
#X connect 6 0 4 1;
#X connect 7 0 11 0;
#X connect 8 0 9 0;
#X connect 9 0 3 0;
#X connect 9 1 6 0;
#X connect 9 2 10 0;
#X connect 10 0 2 0;
#X connect 11 0 21 1;
#X connect 12 0 13 1;
#X connect 13 0 21 0;
#X connect 14 0 13 0;
#X connect 14 1 12 0;
#X connect 14 2 7 0;
#X connect 15 0 18 0;
#X connect 16 0 17 0;
#X connect 18 0 16 0;
#X connect 21 0 20 0;
#X connect 22 0 15 0;
#X restore 100 294 pd \$0-make-buttons;
#N canvas 559 352 450 416 \$0-make-labels 0;
#X obj 41 33 inlet;
#X obj 41 56 t f b;
#X obj 40 98 until;
#X obj 40 120 f;
#X obj 66 121 + 1;
#X msg 77 100 0;
#N canvas 894 270 450 445 makelabel 0;
#X obj 200 79 loadbang;
#X msg 200 103 symbol;
#X obj 145 124 sel symbol;
#X msg 145 148 0;
#X msg 202 147 1;
#X text 217 126 test against empty symbol;
#X obj 42 5 inlet;
#X obj 42 288 outlet;
#X obj 42 125 list fromsymbol;
#X obj 99 195 spigot;
#X obj 42 245 list;
#X obj 99 217 list fromsymbol;
#X obj 99 98 t s s;
#X obj 42 52 t l b;
#X obj 42 266 list tosymbol;
#X msg 99 171 symbol  (\$1);
#X obj 42 76 unpack s s;
#X obj 42 32 text get \$0-filtered;
#X connect 0 0 1 0;
#X connect 1 0 2 1;
#X connect 2 0 3 0;
#X connect 2 1 4 0;
#X connect 3 0 9 1;
#X connect 4 0 9 1;
#X connect 6 0 17 0;
#X connect 8 0 10 0;
#X connect 9 0 11 0;
#X connect 10 0 14 0;
#X connect 11 0 10 1;
#X connect 12 0 15 0;
#X connect 12 1 2 0;
#X connect 13 0 16 0;
#X connect 13 1 10 1;
#X connect 14 0 7 0;
#X connect 15 0 9 0;
#X connect 16 0 8 0;
#X connect 16 1 12 0;
#X connect 17 0 13 0;
#X restore 90 255 pd makelabel;
#X text 127 280 make plugin labels;
#X obj 40 167 * 15;
#X obj 40 280 pack f f s \$0;
#X obj 40 339 s pd-\$0-plugin-list;
#X obj 40 141 t f f b;
#X obj 65 195 +;
#X obj 81 169 v \$0-offset;
#X obj 65 232 t f f;
#X obj 40 195 + 1;
#X msg 40 303 obj 1 \$1 cnv 1 398 13 empty \$4-label-\$2 \$3 10 8 0
12 -262144 -1 0;
#X connect 0 0 1 0;
#X connect 1 0 2 0;
#X connect 1 1 5 0;
#X connect 2 0 3 0;
#X connect 3 0 4 0;
#X connect 3 0 11 0;
#X connect 4 0 3 1;
#X connect 5 0 3 1;
#X connect 6 0 9 2;
#X connect 8 0 15 0;
#X connect 9 0 16 0;
#X connect 11 0 8 0;
#X connect 11 1 12 0;
#X connect 11 2 13 0;
#X connect 12 0 14 0;
#X connect 13 0 12 1;
#X connect 14 0 9 1;
#X connect 14 1 6 0;
#X connect 15 0 9 0;
#X connect 16 0 10 0;
#X restore 80 315 pd \$0-make-labels;
#X obj 73 97 s pd-\$0-plugin-list;
#X msg 73 76 clear;
#X obj 115 78 s \$0-select-old;
#X msg 115 58 -1;
#X obj 122 248 s \$0-scroll-bar;
#X obj 292 33 r \$0-scroll-up;
#X obj 22 32 r \$0-scroll;
#X msg 122 227 0;
#X obj 22 55 t f b f b;
#X obj 22 227 moses 0;
#X obj 292 106 v \$0-scroll;
#X obj 292 174 s \$0-scroll-bar;
#X obj 290 278 v \$0-scroll;
#X obj 290 321 + 1;
#X obj 290 342 min;
#X obj 290 299 t f b;
#X obj 317 321 v \$0-scroll-size;
#X obj 290 363 s \$0-scroll-bar;
#X obj 292 132 - 1;
#X obj 292 153 max 0;
#X obj 290 208 r \$0-scroll-down;
#X obj 348 57 r \$0-scroll-page-up;
#X obj 350 231 r \$0-scroll-page-down;
#X obj 292 53 t b b;
#X obj 348 78 t b b;
#X msg 319 74 1;
#X msg 375 101 40;
#X obj 290 231 t b b;
#X obj 350 252 t b b;
#X msg 317 250 1;
#X msg 377 273 40;
#X obj 57 121 int;
#X obj 61 274 t b f f;
#X obj 61 348 f;
#X obj 91 347 r \$0-select;
#X obj 61 369 s \$0-select;
#X connect 0 0 2 1;
#X connect 1 0 15 0;
#X connect 2 0 3 0;
#X connect 2 1 3 1;
#X connect 3 0 17 0;
#X connect 4 0 40 0;
#X connect 9 0 8 0;
#X connect 11 0 10 0;
#X connect 13 0 31 0;
#X connect 14 0 16 0;
#X connect 15 0 12 0;
#X connect 16 0 2 0;
#X connect 16 1 0 0;
#X connect 16 2 39 0;
#X connect 16 3 9 0;
#X connect 16 3 11 0;
#X connect 17 1 4 0;
#X connect 18 0 26 0;
#X connect 20 0 23 0;
#X connect 21 0 22 0;
#X connect 22 0 25 0;
#X connect 23 0 21 0;
#X connect 23 1 24 0;
#X connect 24 0 22 1;
#X connect 26 0 27 0;
#X connect 27 0 19 0;
#X connect 28 0 35 0;
#X connect 29 0 32 0;
#X connect 30 0 36 0;
#X connect 31 0 18 0;
#X connect 31 1 33 0;
#X connect 32 0 18 0;
#X connect 32 1 34 0;
#X connect 33 0 26 1;
#X connect 34 0 26 1;
#X connect 35 0 20 0;
#X connect 35 1 37 0;
#X connect 36 0 20 0;
#X connect 36 1 38 0;
#X connect 37 0 21 1;
#X connect 38 0 21 1;
#X connect 39 0 5 0;
#X connect 40 0 41 0;
#X connect 40 1 7 0;
#X connect 40 2 6 0;
#X connect 41 0 43 0;
#X connect 42 0 41 1;
#X restore 327 68 pd \$0-scroll;
#X obj 45 541 s \$0-filter;
#X text 325 88 apply filtering;
#X text 56 524 apply filter;
#X obj 45 132 t a b;
#X obj 159 209 symbol;
#X obj 159 230 t s s;
#X obj 158 339 list fromsymbol;
#X obj 102 318 symbol;
#X obj 158 318 symbol;
#X obj 79 429 list append;
#N canvas 1053 210 450 556 \$0-split 0;
#X obj 33 8 inlet;
#X obj 34 526 outlet;
#X obj 63 234 list store;
#X obj 33 49 list fromsymbol;
#X msg 63 208 get \$1 1;
#X obj 63 139 until;
#X obj 63 162 f;
#X obj 90 162 + 1;
#X obj 63 92 list length;
#X obj 92 430 list store;
#X text 111 267 '|' character;
#X obj 63 267 sel 124;
#X msg 133 315 0;
#X obj 63 183 t f f;
#X obj 63 296 f;
#X obj 63 340 + 1;
#X obj 34 504 list store;
#X obj 63 113 + 1;
#X obj 90 383 pack f f;
#X obj 90 358 -;
#X obj 133 343 t f f;
#X obj 63 316 t f f;
#X msg 90 404 get \$2 \$1;
#X obj 33 70 t b l l b b, f 20;
#X obj 92 451 list tosymbol;
#X msg 114 138 0;
#X msg 92 472 append \$1;
#X obj 33 29 symbol;
#X connect 0 0 27 0;
#X connect 2 0 11 0;
#X connect 2 1 14 0;
#X connect 3 0 23 0;
#X connect 4 0 2 0;
#X connect 5 0 6 0;
#X connect 6 0 7 0;
#X connect 6 0 13 0;
#X connect 7 0 6 1;
#X connect 8 0 17 0;
#X connect 9 0 24 0;
#X connect 11 0 14 0;
#X connect 12 0 20 0;
#X connect 13 0 4 0;
#X connect 13 1 14 1;
#X connect 14 0 21 0;
#X connect 15 0 20 0;
#X connect 16 0 1 0;
#X connect 17 0 5 0;
#X connect 18 0 22 0;
#X connect 19 0 18 0;
#X connect 20 0 19 1;
#X connect 20 1 18 1;
#X connect 21 0 15 0;
#X connect 21 1 19 0;
#X connect 22 0 9 0;
#X connect 23 0 16 0;
#X connect 23 1 8 0;
#X connect 23 2 2 1;
#X connect 23 2 9 1;
#X connect 23 3 12 0;
#X connect 23 3 25 0;
#X connect 23 4 16 1;
#X connect 24 0 26 0;
#X connect 25 0 6 1;
#X connect 26 0 16 0;
#X connect 27 0 3 0;
#X restore 270 328 pd \$0-split;
#X text 166 419 line with 5 fields (key \, vendor \, sdkversion \,
synth \, categories...), f 34;
#X obj 102 297 route vendor sdkversion synth category;
#N canvas 677 247 773 583 \$0-update-filters 0;
#X obj 21 27 inlet;
#X obj 40 168 text sequence \$0-info;
#X msg 40 136 line 0 \, bang;
#X obj 60 94 s \$0-filter-vendor-list;
#X obj 70 114 s \$0-filter-category-list;
#X msg 60 73 clear;
#X obj 40 189 list split 4;
#X obj 40 212 unpack s s;
#N canvas 308 323 366 397 \$0-update-vendors 0;
#X obj 19 14 inlet;
#X obj 46 160 until;
#X obj 46 92 text size \$0-filter-vendor-list;
#X obj 46 184 f;
#X obj 78 185 + 1;
#X msg 72 136 0;
#X obj 47 252 text get \$0-filter-vendor-list;
#X obj 47 273 t s;
#X text 71 274 stop on match;
#X obj 46 63 t b b s;
#X obj 46 136 + 1;
#X obj 46 229 moses;
#X obj 73 341 symbol;
#X obj 73 321 b;
#X obj 73 364 text insert \$0-filter-vendor-list;
#X obj 47 294 sel _;
#X obj 46 113 t f f;
#X obj 46 205 t f f;
#X obj 19 35 sel _;
#X obj 61 13 loadbang;
#X msg 61 34 symbol;
#X text 113 36 filter empty symbol;
#X text 183 295 lexicographical compare;
#N canvas 363 218 450 488 \$0-compare 0;
#X obj 127 68 inlet;
#X obj 70 68 inlet;
#X obj 70 409 outlet;
#X obj 127 89 list fromsymbol;
#X obj 70 270 list store;
#X obj 140 271 list store;
#X obj 70 113 list fromsymbol;
#X obj 70 157 list length;
#X obj 70 182 until;
#X obj 70 203 f;
#X obj 98 204 + 1;
#X msg 70 226 get \$1 1;
#X obj 70 247 t a a;
#X msg 111 181 0;
#X obj 70 134 t l l b;
#X obj 70 382 t b b;
#X obj 197 313 t b b;
#X msg 197 334 -1;
#X obj 70 319 moses;
#X obj 116 342 !=;
#X obj 116 363 sel 1;
#N canvas 0 50 450 300 \$0-case 0;
#X obj 40 46 moses 65;
#X obj 85 69 moses 91;
#X obj 84 92 + 32;
#X obj 40 115 t f;
#X obj 39 23 inlet;
#X obj 40 136 outlet;
#X connect 0 0 3 0;
#X connect 0 1 1 0;
#X connect 1 0 2 0;
#X connect 1 1 3 0;
#X connect 2 0 3 0;
#X connect 3 0 5 0;
#X connect 4 0 0 0;
#X restore 70 294 pd \$0-case;
#N canvas 0 50 450 300 \$0-case 0;
#X obj 40 46 moses 65;
#X obj 85 69 moses 91;
#X obj 84 92 + 32;
#X obj 40 115 t f;
#X obj 39 23 inlet;
#X obj 40 136 outlet;
#X connect 0 0 3 0;
#X connect 0 1 1 0;
#X connect 1 0 2 0;
#X connect 1 1 3 0;
#X connect 2 0 3 0;
#X connect 3 0 5 0;
#X connect 4 0 0 0;
#X restore 140 293 pd \$0-case;
#X text 207 289 case insensitive!;
#X connect 0 0 3 0;
#X connect 1 0 6 0;
#X connect 3 0 4 1;
#X connect 4 0 21 0;
#X connect 4 1 15 0;
#X connect 5 0 22 0;
#X connect 5 1 16 0;
#X connect 6 0 14 0;
#X connect 7 0 8 0;
#X connect 8 0 9 0;
#X connect 9 0 10 0;
#X connect 9 0 11 0;
#X connect 10 0 9 1;
#X connect 11 0 12 0;
#X connect 12 0 4 0;
#X connect 12 1 5 0;
#X connect 13 0 9 1;
#X connect 14 0 7 0;
#X connect 14 1 5 1;
#X connect 14 2 13 0;
#X connect 15 0 2 0;
#X connect 15 1 8 1;
#X connect 16 0 17 0;
#X connect 16 1 8 1;
#X connect 17 0 18 1;
#X connect 18 0 15 0;
#X connect 18 1 19 0;
#X connect 19 0 20 0;
#X connect 20 0 8 1;
#X connect 21 0 18 0;
#X connect 22 0 18 1;
#X connect 22 0 19 1;
#X restore 96 293 pd \$0-compare;
#X connect 0 0 18 0;
#X connect 1 0 3 0;
#X connect 2 0 16 0;
#X connect 3 0 4 0;
#X connect 3 0 17 0;
#X connect 4 0 3 1;
#X connect 5 0 3 1;
#X connect 6 0 7 0;
#X connect 7 0 15 0;
#X connect 9 0 2 0;
#X connect 9 1 5 0;
#X connect 9 2 12 1;
#X connect 9 2 15 1;
#X connect 9 2 23 1;
#X connect 10 0 1 0;
#X connect 11 0 6 0;
#X connect 11 1 13 0;
#X connect 12 0 14 0;
#X connect 13 0 12 0;
#X connect 15 0 1 1;
#X connect 15 1 23 0;
#X connect 16 0 10 0;
#X connect 16 1 11 1;
#X connect 17 0 11 0;
#X connect 17 1 14 1;
#X connect 18 1 9 0;
#X connect 19 0 20 0;
#X connect 20 0 18 1;
#X connect 23 0 13 0;
#X connect 23 0 1 1;
#X restore 97 237 pd \$0-update-vendors;
#N canvas 570 143 366 558 \$0-update-categories 0;
#X obj 19 14 inlet;
#X obj 46 290 until;
#X obj 46 314 f;
#X obj 78 315 + 1;
#X msg 72 266 0;
#X obj 47 403 t s;
#X text 71 404 stop on match;
#X obj 46 193 t b b s;
#X obj 46 266 + 1;
#X obj 46 359 moses;
#X obj 73 471 symbol;
#X obj 73 449 b;
#N canvas 363 218 450 488 \$0-compare 0;
#X obj 127 68 inlet;
#X obj 70 68 inlet;
#X obj 70 409 outlet;
#X obj 127 89 list fromsymbol;
#X obj 70 270 list store;
#X obj 140 271 list store;
#X obj 70 113 list fromsymbol;
#X obj 70 157 list length;
#X obj 70 182 until;
#X obj 70 203 f;
#X obj 98 204 + 1;
#X msg 70 226 get \$1 1;
#X obj 70 247 t a a;
#X msg 111 181 0;
#X obj 70 134 t l l b;
#X obj 70 382 t b b;
#X obj 197 313 t b b;
#X msg 197 334 -1;
#X obj 70 319 moses;
#X obj 116 342 !=;
#X obj 116 363 sel 1;
#N canvas 0 50 450 300 \$0-case 0;
#X obj 40 46 moses 65;
#X obj 85 69 moses 91;
#X obj 84 92 + 32;
#X obj 40 115 t f;
#X obj 39 23 inlet;
#X obj 40 136 outlet;
#X connect 0 0 3 0;
#X connect 0 1 1 0;
#X connect 1 0 2 0;
#X connect 1 1 3 0;
#X connect 2 0 3 0;
#X connect 3 0 5 0;
#X connect 4 0 0 0;
#X restore 70 294 pd \$0-case;
#N canvas 0 50 450 300 \$0-case 0;
#X obj 40 46 moses 65;
#X obj 85 69 moses 91;
#X obj 84 92 + 32;
#X obj 40 115 t f;
#X obj 39 23 inlet;
#X obj 40 136 outlet;
#X connect 0 0 3 0;
#X connect 0 1 1 0;
#X connect 1 0 2 0;
#X connect 1 1 3 0;
#X connect 2 0 3 0;
#X connect 3 0 5 0;
#X connect 4 0 0 0;
#X restore 140 293 pd \$0-case;
#X text 212 291 case insensitive!;
#X connect 0 0 3 0;
#X connect 1 0 6 0;
#X connect 3 0 4 1;
#X connect 4 0 21 0;
#X connect 4 1 15 0;
#X connect 5 0 22 0;
#X connect 5 1 16 0;
#X connect 6 0 14 0;
#X connect 7 0 8 0;
#X connect 8 0 9 0;
#X connect 9 0 10 0;
#X connect 9 0 11 0;
#X connect 10 0 9 1;
#X connect 11 0 12 0;
#X connect 12 0 4 0;
#X connect 12 1 5 0;
#X connect 13 0 9 1;
#X connect 14 0 7 0;
#X connect 14 1 5 1;
#X connect 14 2 13 0;
#X connect 15 0 2 0;
#X connect 15 1 8 1;
#X connect 16 0 17 0;
#X connect 16 1 8 1;
#X connect 17 0 18 1;
#X connect 18 0 15 0;
#X connect 18 1 19 0;
#X connect 19 0 20 0;
#X connect 20 0 8 1;
#X connect 21 0 18 0;
#X connect 22 0 18 1;
#X connect 22 0 19 1;
#X restore 93 424 pd \$0-compare;
#X obj 47 424 sel _;
#X obj 46 243 t f f;
#X obj 46 335 t f f;
#X obj 19 165 sel _;
#X obj 89 142 loadbang;
#X msg 89 165 symbol;
#X text 141 167 filter empty symbol;
#X obj 46 222 text size \$0-filter-category-list;
#X obj 47 382 text get \$0-filter-category-list;
#X obj 73 494 text insert \$0-filter-category-list;
#X obj 19 34 t l l b;
#X obj 19 79 until;
#X obj 19 55 list length;
#X obj 19 101 f;
#X obj 45 102 + 1;
#X obj 19 142 list store;
#X msg 19 122 get \$1 1;
#X msg 59 80 0;
#X text 177 425 lexicographical compare;
#X connect 0 0 23 0;
#X connect 1 0 2 0;
#X connect 2 0 3 0;
#X connect 2 0 15 0;
#X connect 3 0 2 1;
#X connect 4 0 2 1;
#X connect 5 0 13 0;
#X connect 7 0 20 0;
#X connect 7 1 4 0;
#X connect 7 2 10 1;
#X connect 7 2 12 1;
#X connect 7 2 13 1;
#X connect 8 0 1 0;
#X connect 9 0 21 0;
#X connect 9 1 11 0;
#X connect 10 0 22 0;
#X connect 11 0 10 0;
#X connect 12 0 1 1;
#X connect 12 0 11 0;
#X connect 13 0 1 1;
#X connect 13 1 12 0;
#X connect 14 0 8 0;
#X connect 14 1 9 1;
#X connect 15 0 9 0;
#X connect 15 1 22 1;
#X connect 16 1 7 0;
#X connect 17 0 18 0;
#X connect 18 0 16 1;
#X connect 20 0 14 0;
#X connect 21 0 5 0;
#X connect 23 0 25 0;
#X connect 23 1 28 1;
#X connect 23 2 30 0;
#X connect 24 0 26 0;
#X connect 25 0 24 0;
#X connect 26 0 27 0;
#X connect 26 0 29 0;
#X connect 27 0 26 1;
#X connect 28 0 16 0;
#X connect 29 0 28 0;
#X connect 30 0 26 1;
#X restore 117 212 pd \$0-update-categories;
#X obj 38 382 s \$0-filter-vendor;
#X obj 48 402 s \$0-filter-category;
#X msg 38 355 0;
#X obj 55 333 s \$0-filter-vendor-nbx;
#X msg 55 312 range 0 \$1;
#X obj 55 289 text size \$0-filter-vendor-list;
#X msg 200 339 range 0 \$1;
#X obj 200 315 text size \$0-filter-category-list;
#X obj 200 360 s \$0-filter-category-nbx;
#X obj 21 49 t b b b;
#X obj 35 457 s \$0-filter-enable;
#X msg 72 434 0;
#X msg 21 433 1;
#X obj 21 265 t b b b b;
#X connect 0 0 19 0;
#X connect 1 0 6 0;
#X connect 2 0 1 0;
#X connect 5 0 3 0;
#X connect 5 0 4 0;
#X connect 6 0 7 0;
#X connect 6 1 9 0;
#X connect 7 1 8 0;
#X connect 12 0 10 0;
#X connect 12 0 11 0;
#X connect 14 0 13 0;
#X connect 15 0 14 0;
#X connect 16 0 18 0;
#X connect 17 0 16 0;
#X connect 19 0 23 0;
#X connect 19 1 2 0;
#X connect 19 2 5 0;
#X connect 21 0 20 0;
#X connect 22 0 20 0;
#X connect 23 0 22 0;
#X connect 23 1 12 0;
#X connect 23 2 15 0;
#X connect 23 2 17 0;
#X connect 23 3 21 0;
#X restore 72 502 pd \$0-update-filters;
#X obj 45 479 t b b;
#X text 235 399 0: VST 2 \, 1: VST3;
#X obj 158 360 list split 4;
#X obj 79 406 pack s s f f;
#X obj 192 381 t f;
#X obj 192 402 == 51;
#X text 234 382 50 -> 2 \, 51 -> 3;
#N canvas 1030 244 430 493 \$0-select 0;
#X obj 35 22 r \$0-select;
#X obj 79 426 v \$0-select-old;
#X obj 104 170 v \$0-select-old;
#X obj 104 218 pack f \$0;
#X obj 106 367 pack f \$0;
#X msg 104 239 \; \$2-label-\$1 color 0 0 -1;
#X obj 33 165 s \$0-path;
#X obj 104 197 moses 0;
#X obj 35 95 moses 0;
#X obj 33 143 text get \$0-filtered 0;
#X floatatom 146 108 5 0 0 0 - - -;
#X msg 107 387 \; \$2-label-\$1 color 1 0 -1;
#X obj 33 121 t f f b;
#X obj 52 298 moses;
#X obj 52 254 t f b;
#X obj 79 275 v \$0-offset;
#X obj 79 323 moses;
#X obj 106 301 + 40;
#X obj 79 344 t f f;
#X text 126 328 only update if in view;
#X obj 35 51 t f b;
#X obj 35 72 spigot;
#X obj 82 72 > 0;
#X obj 82 50 text size \$0-filtered;
#X connect 0 0 20 0;
#X connect 2 0 7 0;
#X connect 3 0 5 0;
#X connect 4 0 11 0;
#X connect 7 1 3 0;
#X connect 8 1 12 0;
#X connect 9 0 6 0;
#X connect 10 0 12 0;
#X connect 12 0 9 0;
#X connect 12 1 14 0;
#X connect 12 2 2 0;
#X connect 13 1 16 0;
#X connect 14 0 13 0;
#X connect 14 1 15 0;
#X connect 15 0 13 1;
#X connect 15 0 17 0;
#X connect 16 0 18 0;
#X connect 17 0 16 1;
#X connect 18 0 1 0;
#X connect 18 1 4 0;
#X connect 20 0 21 0;
#X connect 20 1 23 0;
#X connect 21 0 8 0;
#X connect 22 0 21 1;
#X connect 23 0 22 0;
#X restore 329 144 pd \$0-select;
#X text 326 127 select a plugin;
#X text 326 48 handle scrolling;
#X obj 45 157 vstplugin~ -n 0 0;
#X connect 0 0 15 0;
#X connect 1 0 27 0;
#X connect 2 0 15 0;
#X connect 3 0 4 0;
#X connect 4 0 48 0;
#X connect 5 0 7 0;
#X connect 5 0 18 0;
#X connect 9 0 10 0;
#X connect 11 0 9 0;
#X connect 12 0 17 0;
#X connect 13 0 14 0;
#X connect 15 0 1 0;
#X connect 16 0 38 0;
#X connect 16 1 36 0;
#X connect 16 2 28 0;
#X connect 17 0 13 0;
#X connect 17 1 5 0;
#X connect 27 0 48 0;
#X connect 27 1 13 0;
#X connect 27 1 5 0;
#X connect 28 0 29 0;
#X connect 29 0 41 0;
#X connect 29 1 3 0;
#X connect 30 0 40 0;
#X connect 31 0 41 1;
#X connect 32 0 30 0;
#X connect 33 0 8 0;
#X connect 34 0 33 1;
#X connect 36 0 31 0;
#X connect 36 1 32 0;
#X connect 36 2 41 3;
#X connect 36 3 34 0;
#X connect 38 0 24 0;
#X connect 38 1 37 0;
#X connect 40 1 42 0;
#X connect 41 0 33 0;
#X connect 42 0 43 0;
#X connect 43 0 41 2;
#X connect 48 0 16 0;
#X restore 100 283 pd \$0-search;
#N canvas 28 41 486 714 \$0-plugins 0;
#N canvas 435 260 572 361 \$0-filter 0;
#X symbolatom 113 123 22 0 0 2 Keyword #0-filter-keyword-in #0-filter-keyword-out
;
#X obj 104 205 loadbang;
#X obj 156 156 bng 15 250 50 0 \$0-filter-type-minus \$0-dummy ‹
4 7 0 14 -262144 -1 -1;
#X obj 215 156 bng 15 250 50 0 \$0-filter-type-plus \$0-dummy › 4
7 0 14 -262144 -1 -1;
#X obj 433 123 bng 15 250 50 0 \$0-filter-vendor-minus \$0-dummy ‹
4 7 0 14 -262144 -1 -1;
#X obj 492 123 bng 15 250 50 0 \$0-filter-vendor-plus \$0-dummy ›
4 7 0 14 -262144 -1 -1;
#X obj 433 157 bng 15 250 50 0 \$0-filter-category-minus \$0-dummy
‹ 4 7 0 14 -262144 -1 -1;
#X obj 492 157 bng 15 250 50 0 \$0-filter-category-plus \$0-dummy ›
4 7 0 14 -262144 -1 -1;
#X obj 259 123 cnv 15 170 15 empty empty empty 20 12 0 14 -233017 -66577
0;
#X symbolatom 259 123 28 0 0 2 Vendor #0-filter-vendor-label #0-filter-vendor-out
;
#X obj 114 156 cnv 15 38 15 empty empty empty 20 12 0 14 -233017 -66577
0;
#X obj 259 157 cnv 15 170 15 empty empty empty 20 12 0 14 -233017 -66577
0;
#X symbolatom 114 156 6 0 0 2 Type #0-filter-type-label #0-filter-type-out
;
#X symbolatom 259 157 28 0 0 2 Category #0-filter-category-label #0-filter-category-out
;
#X obj 156 300 s \$0-filter-type;
#X obj 165 326 s \$0-filter-category;
#X msg 113 273 0;
#X obj 147 275 s \$0-filter-vendor;
#X obj 175 156 nbx 3 15 0 4 0 0 \$0-filter-type \$0-filter-type-nbx
empty 38 8 0 10 -262144 -1 -1 0 256;
#X obj 452 157 nbx 3 15 0 37 0 0 \$0-filter-category \$0-filter-category-nbx
empty 38 8 0 10 -262144 -1 -1 0 256;
#X obj 452 123 nbx 3 15 0 32 0 0 \$0-filter-vendor \$0-filter-vendor-nbx
empty 38 8 0 10 -262144 -1 -1 0 256;
#X obj 104 249 s \$0-filter-keyword-in;
#X msg 104 228 symbol;
#X connect 1 0 22 0;
#X connect 1 0 16 0;
#X connect 16 0 17 0;
#X connect 16 0 14 0;
#X connect 16 0 15 0;
#X connect 22 0 21 0;
#X coords 0 -1 1 1 415 80 2 100 100;
#X restore 26 15 pd \$0-filter;
#N canvas 354 119 450 300 \$0-plugin-list 0;
#X coords 0 0 400 600 400 600 2 0 0;
#X restore 41 95 pd \$0-plugin-list;
#X obj 26 127 vsl 15 535 1209 0 0 0 \$0-scroll \$0-scroll-bar empty
0 -9 0 10 -262144 -1 -1 53400 0;
#X obj 26 95 bng 15 250 50 0 \$0-scroll-page-up \$0-scroll-page-up
« 4 7 0 14 -191407 -1 -1;
#X obj 26 110 bng 15 250 50 0 \$0-scroll-up \$0-scroll-up ‹ 4 7 0
14 -228856 -1 -1;
#X obj 26 665 bng 15 250 50 0 \$0-scroll-down \$0-scroll-down › 4
7 0 14 -228856 -1 -1;
#X obj 26 680 bng 15 250 50 0 \$0-scroll-page-down \$0-scroll-page-down
» 4 7 0 14 -191407 -1 -1;
#X restore 100 260 pd \$0-plugins;
#X obj 175 312 loadbang;
#X obj 175 354 route symbol;
#X msg 175 375 1;
#X obj 125 374 spigot;
#X obj 99 327 t a a;
#X obj 175 333 list append \$1;
#X obj 125 395 s \$1;
#X obj 169 228 tgl 15 0 \$0-async \$0-async async 18 7 0 10 -262144
-1 -1 1 1;
#X obj 280 310 loadbang;
#X msg 280 331 1;
#X obj 280 352 s \$0-async;
#X msg 349 331 0;
#X obj 349 352 s \$0-editor;
#X connect 8 0 16 0;
#X connect 12 0 17 0;
#X connect 13 0 14 0;
#X connect 14 0 15 1;
#X connect 15 0 18 0;
#X connect 16 0 9 0;
#X connect 16 1 15 0;
#X connect 17 0 13 0;
#X connect 20 0 21 0;
#X connect 20 0 23 0;
#X connect 21 0 22 0;
#X connect 23 0 24 0;
#X coords 0 -1 1 1 180 150 2 100 100;
