#N canvas 401 294 629 467 10;
#X obj 21 14 inlet;
#X obj 26 355 outlet;
#X obj 101 101 cnv 15 218 20 empty empty vstpresetbrowser 5 10 0 14
-228856 -99865 0;
#N canvas 0 50 450 300 \$0-presets 0;
#X coords 0 0 205 180 205 180 2 0 0;
#X restore 115 170 pd \$0-presets;
#X symbolatom 157 127 26 0 0 1 - #0-preset-name-in #0-preset-name-out
;
#X obj 157 149 bng 15 250 50 0 \$0-preset-save \$0-preset-save Save
17 7 0 10 -257985 -1 -1;
#X obj 203 149 bng 15 250 50 0 \$0-preset-rename \$0-preset-rename
Rename 17 7 0 10 -262144 -1 -1;
#X obj 261 149 bng 15 250 50 0 \$0-preset-delete \$0-preset-delete
Delete 17 7 0 10 -258113 -1 -1;
#X obj 100 170 bng 15 250 50 0 \$0-scroll-page-up \$0-scroll-page-up
« 4 7 0 14 -191407 -1 -1;
#X obj 100 185 bng 15 250 50 0 \$0-scroll-up \$0-scroll-up ‹ 4 7
0 14 -228856 -1 -1;
#X obj 100 320 bng 15 250 50 0 \$0-scroll-down \$0-scroll-down ›
4 7 0 14 -228856 -1 -1;
#X obj 100 335 bng 15 250 50 0 \$0-scroll-page-down \$0-scroll-page-down
» 4 7 0 14 -191407 -1 -1;
#X obj 21 91 route 1;
#X obj 21 112 symbol;
#X obj 21 133 s \$0-update;
#X obj 26 312 r \$0-msg;
#X obj 106 149 bng 15 250 50 0 \$0-preset-load \$0-preset-load Load
17 7 0 10 -4034 -1 -1;
#X obj 334 101 loadbang;
#X msg 334 122 symbol;
#X obj 334 143 s \$0-preset-name-in;
#N canvas 583 125 893 515 \$0-select 0;
#X obj 597 165 r \$0-preset-name-out;
#X obj 363 11 r \$0-preset-load;
#X obj 360 304 r \$0-preset-save;
#X obj 552 266 r \$0-preset-delete;
#X obj 552 330 unpack f f;
#X obj 552 351 sel 0;
#X obj 552 375 f;
#X obj 591 394 print ERROR;
#X msg 591 373 can't delete preset - not writeable;
#X obj 591 352 b;
#X obj 552 472 s \$0-msg;
#X obj 552 76 unpack f f;
#X obj 552 97 sel 0;
#X obj 552 121 f;
#X obj 591 140 print ERROR;
#X obj 591 98 b;
#X obj 552 231 s \$0-msg;
#X obj 552 12 r \$0-preset-rename;
#X msg 591 119 can't rename preset - not writeable;
#X obj 393 327 r \$0-preset-name-out;
#X obj 360 350 symbol;
#X obj 360 416 s \$0-msg;
#X obj 552 55 text get \$0-presets;
#X obj 552 33 v \$0-select;
#X obj 363 32 v \$0-select;
#X obj 552 287 v \$0-select;
#X obj 363 75 unpack f f;
#X obj 363 96 moses 0;
#X obj 363 141 f;
#X obj 363 119 b;
#X msg 363 164 program_set \$1;
#X obj 402 142 f;
#X obj 402 120 b;
#X obj 363 237 s \$0-msg;
#X obj 552 309 text get \$0-presets;
#X obj 363 55 text get \$0-presets;
#X obj 80 13 r \$0-select;
#X obj 124 412 v \$0-select-old;
#X obj 149 156 v \$0-select-old;
#X obj 149 204 pack f \$0;
#X obj 151 353 pack f \$0;
#X msg 149 225 \; \$2-label-\$1 color 0 0 -1;
#X obj 149 183 moses 0;
#X msg 152 373 \; \$2-label-\$1 color 1 0 -1;
#X obj 78 107 t f f b;
#X obj 97 284 moses;
#X obj 97 240 t f b;
#X obj 124 261 v \$0-offset;
#X obj 124 309 moses;
#X obj 124 330 t f f;
#X text 171 314 only update if in view;
#X obj 22 138 text get \$0-presets;
#X obj 22 163 list split 2;
#X obj 22 186 t s;
#X obj 22 209 s \$0-preset-name-in;
#X obj 151 287 + 12;
#X obj 80 83 moses 0;
#X obj 80 37 t f b;
#X obj 127 36 text size \$0-presets;
#X obj 80 58 spigot;
#X obj 127 58 > 0;
#X obj 360 371 pack s f;
#X obj 405 350 r \$0-async;
#X msg 360 395 preset_save \$1 \$2;
#X obj 402 189 pack f f;
#X obj 461 164 r \$0-async;
#X msg 402 213 preset_load \$1 \$2;
#X obj 552 187 pack f s f;
#X obj 552 419 pack f f;
#X obj 610 419 r \$0-async;
#X obj 624 186 r \$0-async;
#X msg 552 208 preset_rename \$1 \$2 \$3;
#X msg 552 443 preset_delete \$1 \$2;
#X connect 0 0 67 1;
#X connect 1 0 24 0;
#X connect 2 0 20 0;
#X connect 3 0 25 0;
#X connect 4 0 5 0;
#X connect 4 1 6 1;
#X connect 5 0 6 0;
#X connect 5 1 9 0;
#X connect 6 0 68 0;
#X connect 8 0 7 0;
#X connect 9 0 8 0;
#X connect 11 0 12 0;
#X connect 11 1 13 1;
#X connect 12 0 13 0;
#X connect 12 1 15 0;
#X connect 13 0 67 0;
#X connect 15 0 18 0;
#X connect 17 0 23 0;
#X connect 18 0 14 0;
#X connect 19 0 20 1;
#X connect 20 0 61 0;
#X connect 22 0 11 0;
#X connect 23 0 22 0;
#X connect 24 0 35 0;
#X connect 25 0 34 0;
#X connect 26 0 27 0;
#X connect 26 1 28 1;
#X connect 26 1 31 1;
#X connect 27 0 29 0;
#X connect 27 1 32 0;
#X connect 28 0 30 0;
#X connect 29 0 28 0;
#X connect 30 0 33 0;
#X connect 31 0 64 0;
#X connect 32 0 31 0;
#X connect 34 0 4 0;
#X connect 35 0 26 0;
#X connect 36 0 57 0;
#X connect 38 0 42 0;
#X connect 39 0 41 0;
#X connect 40 0 43 0;
#X connect 42 1 39 0;
#X connect 44 0 51 0;
#X connect 44 1 46 0;
#X connect 44 2 38 0;
#X connect 45 1 48 0;
#X connect 46 0 45 0;
#X connect 46 1 47 0;
#X connect 47 0 45 1;
#X connect 47 0 55 0;
#X connect 48 0 49 0;
#X connect 49 0 37 0;
#X connect 49 1 40 0;
#X connect 51 0 52 0;
#X connect 52 1 53 0;
#X connect 53 0 54 0;
#X connect 55 0 48 1;
#X connect 56 1 44 0;
#X connect 57 0 59 0;
#X connect 57 1 58 0;
#X connect 58 0 60 0;
#X connect 59 0 56 0;
#X connect 60 0 59 1;
#X connect 61 0 63 0;
#X connect 62 0 61 1;
#X connect 63 0 21 0;
#X connect 64 0 66 0;
#X connect 65 0 64 1;
#X connect 66 0 33 0;
#X connect 67 0 71 0;
#X connect 68 0 72 0;
#X connect 69 0 68 1;
#X connect 70 0 67 2;
#X connect 71 0 16 0;
#X connect 72 0 10 0;
#X restore 225 19 pd \$0-select;
#X text 222 2 select a preset;
#N canvas 802 272 516 428 \$0-scroll 1;
#X obj 122 232 loadbang;
#X obj 22 208 swap;
#X obj 22 232 -;
#X obj 57 166 v \$0-offset;
#N canvas 1022 65 368 553 \$0-make-buttons 0;
#X obj 24 17 inlet;
#X obj 158 332 pointer;
#X msg 157 312 traverse \$1 \, bang;
#X obj 23 69 until;
#X obj 23 94 f;
#X obj 54 96 + 1;
#X msg 62 71 0;
#X obj 59 141 * 15;
#X msg 69 17 10;
#X obj 24 42 t f b b;
#X obj 59 164 + 0;
#X obj 41 187 v \$0-offset;
#X obj 23 207 +;
#X obj 23 114 t f b f;
#X obj 23 435 route click;
#X obj 23 481 get \$0-button id;
#X obj 23 502 s \$0-select;
#X obj 23 458 t p;
#X obj 23 331 pack f f 0;
#X obj 158 290 symbol pd-\$0-presets;
#X obj 23 228 t f f;
#X obj 23 300 spigot;
#X text 65 231 don't create buttons for header labels;
#X obj 50 252 text get \$0-presets 1;
#X obj 50 275 >= 0;
#X text 185 254 negative index -> label;
#X obj 23 358 append \$0-button id y x;
#X obj 23 412 struct \$0-button float x float y float id;
#X obj 23 388 filledpolygon 999 0 1 0 0 205 0 205 15 0 15;
#X connect 0 0 9 0;
#X connect 1 0 26 3;
#X connect 2 0 1 0;
#X connect 3 0 4 0;
#X connect 4 0 5 0;
#X connect 4 0 13 0;
#X connect 5 0 4 1;
#X connect 6 0 4 1;
#X connect 7 0 10 0;
#X connect 8 0 9 0;
#X connect 9 0 3 0;
#X connect 9 1 6 0;
#X connect 9 2 19 0;
#X connect 10 0 18 1;
#X connect 11 0 12 1;
#X connect 12 0 20 0;
#X connect 13 0 12 0;
#X connect 13 1 11 0;
#X connect 13 2 7 0;
#X connect 14 0 17 0;
#X connect 15 0 16 0;
#X connect 17 0 15 0;
#X connect 18 0 26 0;
#X connect 19 0 2 0;
#X connect 20 0 21 0;
#X connect 20 1 23 0;
#X connect 21 0 18 0;
#X connect 23 0 24 0;
#X connect 24 0 21 1;
#X connect 27 0 14 0;
#X restore 100 321 pd \$0-make-buttons;
#N canvas 1012 321 450 431 \$0-make-labels 0;
#X obj 40 47 inlet;
#X obj 40 70 t f b;
#X obj 40 98 until;
#X obj 40 120 f;
#X obj 66 121 + 1;
#X msg 77 100 0;
#X obj 40 167 * 15;
#X obj 40 141 t f f b;
#X obj 65 195 +;
#X obj 81 169 v \$0-offset;
#X obj 65 217 t f f;
#X obj 40 195 + 1;
#X obj 40 396 s pd-\$0-presets;
#X obj 92 242 text get \$0-presets 1 2;
#X obj 92 263 unpack f s;
#X obj 144 287 moses 0;
#X obj 40 342 pack f f s f \$0;
#X msg 40 368 obj 1 \$1 cnv 1 203 13 empty \$5-label-\$2 \$3 10 8 0
12 \$4 -1 0;
#X msg 184 309 0;
#X msg 144 310 10;
#X connect 0 0 1 0;
#X connect 1 0 2 0;
#X connect 1 1 5 0;
#X connect 2 0 3 0;
#X connect 3 0 4 0;
#X connect 3 0 7 0;
#X connect 4 0 3 1;
#X connect 5 0 3 1;
#X connect 6 0 11 0;
#X connect 7 0 6 0;
#X connect 7 1 8 0;
#X connect 7 2 9 0;
#X connect 8 0 10 0;
#X connect 9 0 8 1;
#X connect 10 0 16 1;
#X connect 10 1 13 0;
#X connect 11 0 16 0;
#X connect 13 0 14 0;
#X connect 14 0 15 0;
#X connect 14 1 16 2;
#X connect 15 0 19 0;
#X connect 15 1 18 0;
#X connect 16 0 17 0;
#X connect 17 0 12 0;
#X connect 18 0 16 3;
#X connect 19 0 16 3;
#X restore 80 341 pd \$0-make-labels;
#X msg 73 76 clear;
#X obj 115 78 s \$0-select-old;
#X msg 115 58 -1;
#X obj 122 273 s \$0-scroll-bar;
#X obj 251 36 r \$0-scroll-up;
#X obj 22 32 r \$0-scroll;
#X msg 122 252 0;
#X obj 22 55 t f b f b;
#X obj 22 253 moses 0;
#X obj 251 109 v \$0-scroll;
#X obj 251 177 s \$0-scroll-bar;
#X obj 249 281 v \$0-scroll;
#X obj 249 324 + 1;
#X obj 249 345 min;
#X obj 249 302 t f b;
#X obj 276 324 v \$0-scroll-size;
#X obj 249 366 s \$0-scroll-bar;
#X obj 251 135 - 1;
#X obj 251 156 max 0;
#X obj 249 211 r \$0-scroll-down;
#X obj 307 60 r \$0-scroll-page-up;
#X obj 309 234 r \$0-scroll-page-down;
#X obj 251 56 t b b;
#X obj 307 81 t b b;
#X msg 278 77 1;
#X obj 249 234 t b b;
#X obj 309 255 t b b;
#X msg 276 253 1;
#X obj 57 147 int;
#X obj 73 97 s pd-\$0-presets;
#X obj 39 189 text size \$0-presets;
#X obj 61 277 min 12;
#X msg 334 104 12;
#X msg 336 276 12;
#X obj 61 370 f;
#X obj 91 369 r \$0-select;
#X obj 61 391 s \$0-select;
#X obj 61 300 t b f f;
#X obj 56 124 + 0.5;
#X connect 0 0 12 0;
#X connect 1 0 2 0;
#X connect 1 1 2 1;
#X connect 2 0 14 0;
#X connect 6 0 35 0;
#X connect 8 0 7 0;
#X connect 10 0 28 0;
#X connect 11 0 13 0;
#X connect 12 0 9 0;
#X connect 13 0 1 0;
#X connect 13 1 36 0;
#X connect 13 2 44 0;
#X connect 13 3 6 0;
#X connect 13 3 8 0;
#X connect 14 1 37 0;
#X connect 15 0 23 0;
#X connect 17 0 20 0;
#X connect 18 0 19 0;
#X connect 19 0 22 0;
#X connect 20 0 18 0;
#X connect 20 1 21 0;
#X connect 21 0 19 1;
#X connect 23 0 24 0;
#X connect 24 0 16 0;
#X connect 25 0 31 0;
#X connect 26 0 29 0;
#X connect 27 0 32 0;
#X connect 28 0 15 0;
#X connect 28 1 30 0;
#X connect 29 0 15 0;
#X connect 29 1 38 0;
#X connect 30 0 23 1;
#X connect 31 0 17 0;
#X connect 31 1 33 0;
#X connect 32 0 17 0;
#X connect 32 1 39 0;
#X connect 33 0 18 1;
#X connect 34 0 3 0;
#X connect 36 0 1 1;
#X connect 37 0 43 0;
#X connect 38 0 23 1;
#X connect 39 0 18 1;
#X connect 40 0 42 0;
#X connect 41 0 40 1;
#X connect 43 0 40 0;
#X connect 43 1 5 0;
#X connect 43 2 4 0;
#X connect 44 0 34 0;
#X restore 327 20 pd \$0-scroll;
#X text 326 0 handle scrolling;
#N canvas 944 106 450 648 \$0-update 0;
#X obj 30 11 r \$0-update;
#X obj 47 181 vstplugin~ -n 0 0;
#X obj 30 494 max 0;
#X msg 49 564 range \$1 0;
#X obj 30 516 t b f f;
#X obj 85 517 s \$0-scroll-size;
#X obj 49 584 s \$0-scroll-bar;
#X obj 30 449 text size \$0-presets;
#X obj 30 472 - 12;
#X msg 47 132 preset_list \$1;
#X msg 137 68 clear;
#X obj 74 328 sel;
#X obj 47 419 text set \$0-presets 1e+007;
#X obj 136 349 text define -k \$0-labels;
#A set -1 -1 built-in programs \; 0 -1 user presets \; 1 -1 user factory presets
\; 2 -1 shared factory presets \; 3 -1 global presets \;;
#X obj 89 392 text get \$0-labels;
#X obj 47 280 t l f;
#X obj 89 349 t f f;
#X obj 89 370 + 1;
#X msg 64 154 program_list \$1;
#X obj 135 225 list prepend -1;
#X obj 47 202 route preset_info program_name;
#X msg 89 306 1e+007;
#X obj 47 223 list split 3;
#X obj 47 249 list prepend;
#X obj 181 69 s \$0-select;
#X msg 181 48 -1;
#X obj 137 90 s pd-\$0-presets;
#X obj 147 110 s \$0-presets;
#X symbolatom 62 33 10 0 0 0 - - -;
#N canvas 689 334 450 424 \$0-restore 0;
#X obj 31 4 inlet;
#X text 39 307 update scroll view;
#X msg 31 289 0;
#X obj 31 325 s \$0-scroll-bar;
#X obj 77 174 r \$0-preset-name-out;
#X obj 50 196 sel _;
#X obj 50 88 until;
#X obj 50 108 f;
#X obj 77 111 + 1;
#X msg 91 89 0;
#X obj 50 152 text get \$0-presets 2;
#X obj 50 61 text size \$0-presets;
#X obj 50 129 t f f;
#X obj 50 219 f;
#X obj 31 25 t b b b;
#X obj 31 265 spigot;
#X msg 74 266 1;
#X msg 74 246 0;
#X obj 142 223 min;
#X obj 169 223 v \$0-scroll-size;
#X obj 123 246 s \$0-select;
#X floatatom 285 227 5 0 0 0 - - -;
#X obj 123 198 t f f b;
#X connect 0 0 14 0;
#X connect 2 0 3 0;
#X connect 4 0 5 1;
#X connect 5 0 13 0;
#X connect 5 0 6 1;
#X connect 5 0 17 0;
#X connect 6 0 7 0;
#X connect 7 0 8 0;
#X connect 7 0 12 0;
#X connect 8 0 7 1;
#X connect 9 0 7 1;
#X connect 10 0 5 0;
#X connect 11 0 6 0;
#X connect 12 0 10 0;
#X connect 12 1 13 1;
#X connect 13 0 22 0;
#X connect 14 0 15 0;
#X connect 14 1 11 0;
#X connect 14 2 9 0;
#X connect 14 2 16 0;
#X connect 15 0 2 0;
#X connect 16 0 15 1;
#X connect 17 0 15 1;
#X connect 18 0 3 0;
#X connect 19 0 18 1;
#X connect 21 0 3 0;
#X connect 22 0 20 0;
#X connect 22 1 18 0;
#X connect 22 2 19 0;
#X restore 30 609 pd \$0-restore;
#X obj 40 33 bng 15 250 50 0 empty empty empty 17 7 0 10 -262144 -1
-1;
#X obj 30 56 t b a b;
#X obj 49 79 route bang;
#X obj 47 102 t s s;
#X text 90 542 hack;
#X obj 49 541 max 1;
#X connect 0 0 31 0;
#X connect 1 0 20 0;
#X connect 2 0 4 0;
#X connect 3 0 6 0;
#X connect 4 0 29 0;
#X connect 4 1 35 0;
#X connect 4 2 5 0;
#X connect 7 0 8 0;
#X connect 8 0 2 0;
#X connect 9 0 1 0;
#X connect 10 0 26 0;
#X connect 10 0 27 0;
#X connect 11 1 16 0;
#X connect 14 0 12 0;
#X connect 15 0 12 0;
#X connect 15 1 11 0;
#X connect 16 0 17 0;
#X connect 16 1 11 1;
#X connect 17 0 14 0;
#X connect 18 0 1 0;
#X connect 19 0 15 0;
#X connect 20 0 22 0;
#X connect 20 1 19 0;
#X connect 21 0 11 1;
#X connect 22 0 23 0;
#X connect 22 1 23 1;
#X connect 23 0 15 0;
#X connect 25 0 24 0;
#X connect 28 0 31 0;
#X connect 30 0 31 0;
#X connect 31 0 7 0;
#X connect 31 1 32 0;
#X connect 31 2 21 0;
#X connect 31 2 25 0;
#X connect 31 2 10 0;
#X connect 32 1 33 0;
#X connect 33 0 9 0;
#X connect 33 1 18 0;
#X connect 35 0 3 0;
#X restore 226 58 pd \$0-update;
#X text 227 39 update presets;
#X obj 328 58 text define \$0-presets;
#X text 326 38 type index name path;
#X obj 59 36 spigot;
#X obj 108 -25 loadbang;
#X obj 108 17 route symbol;
#X msg 108 38 1;
#X obj 102 356 loadbang;
#X obj 102 398 route symbol;
#X msg 102 419 1;
#X obj 26 333 t a a;
#X obj 52 378 spigot;
#X obj 59 14 r \$1;
#X obj 108 -4 list append \$1;
#X obj 102 377 list append \$2;
#X obj 52 399 s \$2;
#X obj 106 127 tgl 15 0 \$0-async \$0-async async 17 7 0 10 -262144
-1 -1 1 1;
#X obj 350 187 s \$0-async;
#X msg 350 167 1;
#X obj 21 70 route open preset_change close;
#X obj 100 202 vsl 15 115 0 1 0 0 \$0-scroll \$0-scroll-bar empty 0
-9 0 10 -262144 -1 -1 0 0;
#X connect 0 0 44 0;
#X connect 12 0 13 0;
#X connect 13 0 14 0;
#X connect 15 0 35 0;
#X connect 17 0 18 0;
#X connect 17 0 43 0;
#X connect 18 0 19 0;
#X connect 28 0 44 0;
#X connect 29 0 38 0;
#X connect 30 0 31 0;
#X connect 31 0 28 1;
#X connect 32 0 39 0;
#X connect 33 0 34 0;
#X connect 34 0 36 1;
#X connect 35 0 1 0;
#X connect 35 1 36 0;
#X connect 36 0 40 0;
#X connect 37 0 28 0;
#X connect 38 0 30 0;
#X connect 39 0 33 0;
#X connect 43 0 42 0;
#X connect 44 0 12 0;
#X connect 44 1 13 0;
#X connect 44 2 14 0;
#X coords 0 -1 1 1 220 250 2 100 100;
