#N canvas 600 200 473 481 10;
#X obj 107 127 bng 15 250 50 0 \$0-plugins-show empty show plug-ins
18 7 0 10 -257985 -1 -1;
#X obj 107 147 bng 15 250 50 0 \$0-search empty search VST directories
18 7 0 10 -191407 -1 -1;
#X obj 107 167 bng 15 250 50 0 \$0-search-dir empty search user directory
18 7 0 10 -228856 -1 -1;
#X obj 107 187 bng 15 250 50 0 \$0-file empty search plug-in file
18 7 0 10 -262144 -1 -1;
#X obj 107 228 tgl 15 0 \$0-editor \$0-editor use VST editor 18
7 0 10 -262144 -1 -1 0 1;
#X obj 101 101 cnv 15 178 20 empty empty vstpluginbrowser 5 10 0 14
-228856 -99865 0;
#X obj 226 228 bng 15 250 50 0 \$0-open empty open 18 7 0 10 -4034
-1 -1;
#X symbolatom 107 208 26 0 0 0 - #0-path #0-path-out;
#N canvas 241 280 450 376 \$0-open 0;
#X obj 36 249 outlet;
#X obj 211 8 r \$0-file;
#X obj 53 5 r \$0-open;
#X obj 78 116 v \$0-editor;
#X obj 211 29 openpanel;
#X obj 51 92 t s b;
#X obj 36 204 list prepend;
#X obj 36 227 list trim;
#X obj 78 138 sel 1 0;
#X msg 78 158 open -e;
#X msg 105 179 open;
#X obj 121 7 r \$0-path-out;
#X obj 51 67 symbol;
#X obj 120 28 route bang;
#X msg 120 50 symbol;
#X obj 211 50 s \$0-path;
#X connect 1 0 4 0;
#X connect 2 0 12 0;
#X connect 3 0 8 0;
#X connect 4 0 15 0;
#X connect 5 0 6 0;
#X connect 5 1 3 0;
#X connect 6 0 7 0;
#X connect 7 0 0 0;
#X connect 8 0 9 0;
#X connect 8 1 10 0;
#X connect 9 0 6 1;
#X connect 10 0 6 1;
#X connect 11 0 13 0;
#X connect 12 0 5 0;
#X connect 13 0 14 0;
#X connect 13 1 12 1;
#X connect 14 0 12 1;
#X restore 99 307 pd \$0-open;
#X obj 99 328 outlet;
#N canvas 630 18 780 790 \$0-search 0;
#X obj 45 158 vstplugin~ 0 0;
#X obj 45 64 r \$0-search;
#X obj 45 111 list trim;
#X obj 12 33 bng 15 250 50 0 empty empty empty 17 7 0 10 -262144 -1
-1;
#X obj 160 231 list prepend info;
#X obj 160 252 list trim;
#X msg 250 144 clear;
#X obj 193 298 f;
#X msg 208 275 0;
#X obj 47 35 text define \$0-info;
#X obj 259 188 s \$0-info;
#X obj 105 421 text set \$0-info 1e+007;
#X obj 226 297 + 1;
#X obj 63 324 text set \$0-info 0 1;
#X obj 63 298 symbol;
#X obj 45 378 f;
#X obj 251 168 s pd-\$0-plugins;
#X obj 45 421 t b f f;
#X obj 64 469 t f b;
#X obj 64 490 until;
#X obj 64 512 f;
#X obj 90 513 + 1;
#X msg 101 492 0;
#N canvas 600 308 450 445 makelabel 0;
#X obj 42 32 text get \$0-info;
#X obj 200 79 loadbang;
#X msg 200 103 symbol;
#X obj 145 124 sel symbol;
#X msg 145 148 0;
#X msg 202 147 1;
#X text 217 126 test against empty symbol;
#X obj 42 5 inlet;
#X obj 42 288 outlet;
#X obj 42 125 list fromsymbol;
#X obj 99 195 spigot;
#X obj 42 245 list;
#X obj 99 217 list fromsymbol;
#X obj 42 76 unpack s s;
#X obj 99 98 t s s;
#X obj 42 52 t l b;
#X obj 42 266 list tosymbol;
#X msg 99 171 symbol  (\$1);
#X connect 0 0 15 0;
#X connect 1 0 2 0;
#X connect 2 0 3 1;
#X connect 3 0 4 0;
#X connect 3 1 5 0;
#X connect 4 0 10 1;
#X connect 5 0 10 1;
#X connect 7 0 0 0;
#X connect 9 0 11 0;
#X connect 10 0 12 0;
#X connect 11 0 16 0;
#X connect 12 0 11 1;
#X connect 13 0 9 0;
#X connect 13 1 14 0;
#X connect 14 0 17 0;
#X connect 14 1 3 0;
#X connect 15 0 13 0;
#X connect 15 1 11 1;
#X connect 16 0 8 0;
#X connect 17 0 10 0;
#X restore 114 575 pd makelabel;
#X obj 64 659 s pd-\$0-plugins;
#X obj 64 576 + 10;
#X text 151 600 make plugin labels;
#X obj 64 555 * 15;
#X obj 45 745 s \$0-select;
#X msg 45 682 0;
#X obj 233 663 r \$0-select;
#X obj 233 705 v \$0-select-old;
#X obj 299 724 v \$0-select-old;
#X obj 299 748 pack f \$0;
#X obj 232 783 pack f \$0;
#X obj 45 399 moses 1;
#X obj 64 533 t f f f;
#X obj 64 600 pack f f s \$0;
#X msg 299 769 \; \$2-label-\$1 color 0 0 -1;
#X msg 232 803 \; \$2-label-\$1 color 0 0 13;
#X text 459 783 black;
#X text 384 811 red;
#X msg 192 55 vis 1;
#X obj 192 76 s pd-\$0-plugins;
#X obj 192 33 r \$0-plugins-show;
#X obj 189 97 loadbang;
#X msg 189 142 symbol;
#X obj 189 163 s \$0-path;
#X obj 108 299 symbol;
#X obj 107 351 text set \$0-info 0 2;
#X obj 233 684 t f f f b;
#X obj 162 780 s \$0-path;
#X obj 162 758 text get \$0-info 0;
#X obj 421 45 r \$0-search-dir;
#X obj 421 69 openpanel;
#X obj 448 111 list fromsymbol;
#X obj 448 221 array set \$0-dirbuf;
#X obj 421 90 t b s;
#X obj 448 132 t l l;
#X obj 502 198 array size \$0-dirbuf;
#X obj 421 246 f;
#X obj 475 155 list length;
#X obj 475 177 t f f;
#X obj 440 291 until;
#X obj 440 312 f;
#X obj 468 313 + 1;
#X msg 480 290 0;
#X obj 421 268 t b f b;
#X obj 440 403 spigot;
#X obj 467 379 == 47;
#X obj 421 428 f;
#X obj 421 473 array get \$0-dirbuf;
#X msg 421 449 0 \$1;
#X text 451 246 find last /;
#X text 455 447 get directory;
#X obj 421 494 list tosymbol;
#X obj 490 70 array define \$0-dirbuf 1000;
#X obj 467 357 tabread \$0-dirbuf;
#X obj 440 333 t f f;
#X obj 421 515 s \$0-search;
#X obj 72 723 v \$0-select-old;
#X obj 45 703 t f f;
#X msg 64 624 obj 30 \$1 cnv 1 1 1 empty \$4-label-\$2 \$3 0 10 0 12
-262144 -1 0;
#X msg 105 398 list \$1 0 0;
#X obj 105 373 symbol;
#X text 186 389 line with 3 fields (key \, vendor \, path), f 20;
#X msg 63 352 0;
#X obj 45 85 list prepend search -a;
#X obj 62 277 route vendor path;
#X obj 45 187 route search_done info plugin;
#X obj 45 132 t a b b b;
#X obj 45 213 b;
#X obj 159 210 t a a b b;
#N canvas 357 211 320 300 make 0;
#X obj 24 17 inlet;
#N canvas 798 380 450 300 \$0-template 0;
#X obj 101 59 filledpolygon color 0 1 0 0 15 0 15 15 0 15;
#X obj 15 34 struct \$0-button float x float y float color float id
;
#X obj 15 60 route click;
#X obj 15 106 get \$0-button id;
#X obj 49 227 set \$0-button color;
#X obj 49 179 t b p;
#X obj 15 81 t p p p b;
#X obj 130 180 t b p;
#X msg 130 200 999;
#X obj 15 131 s \$0-select;
#X obj 130 155 pointer;
#X obj 145 102 inlet;
#X obj 145 123 t p p;
#X text 185 124 mark and save the first pointer;
#X msg 49 203 666;
#X connect 1 0 2 0;
#X connect 2 0 6 0;
#X connect 3 0 9 0;
#X connect 5 0 14 0;
#X connect 5 1 4 1;
#X connect 6 0 3 0;
#X connect 6 1 5 0;
#X connect 6 2 10 1;
#X connect 6 3 10 0;
#X connect 7 0 8 0;
#X connect 7 1 4 1;
#X connect 8 0 4 0;
#X connect 10 0 7 0;
#X connect 11 0 12 0;
#X connect 12 0 5 0;
#X connect 12 1 10 1;
#X connect 14 0 4 0;
#X restore 24 276 pd \$0-template;
#X obj 194 185 pointer;
#X obj 194 143 symbol pd-\$0-plugins;
#X msg 193 165 traverse \$1 \, bang;
#X obj 23 69 until;
#X obj 23 94 f;
#X obj 54 96 + 1;
#X msg 62 71 0;
#X obj 42 140 * 15;
#X obj 42 163 + 10;
#X msg 69 17 10;
#X obj 24 212 append \$0-button id y x color;
#X obj 24 189 pack f f 10 999;
#X obj 23 255 spigot;
#X obj 63 232 == 0;
#X obj 23 115 t f f f;
#X text 96 235 send the first pointer;
#X obj 24 39 t f b b;
#X connect 0 0 18 0;
#X connect 2 0 12 4;
#X connect 3 0 4 0;
#X connect 4 0 2 0;
#X connect 5 0 6 0;
#X connect 6 0 7 0;
#X connect 6 0 16 0;
#X connect 7 0 6 1;
#X connect 8 0 6 1;
#X connect 9 0 10 0;
#X connect 10 0 13 1;
#X connect 11 0 18 0;
#X connect 12 0 14 0;
#X connect 13 0 12 0;
#X connect 14 0 1 0;
#X connect 15 0 14 1;
#X connect 16 0 13 0;
#X connect 16 1 9 0;
#X connect 16 2 15 0;
#X connect 18 0 5 0;
#X connect 18 1 8 0;
#X connect 18 2 3 0;
#X restore 84 445 pd make buttons;
#X obj 189 118 t b b;
#X connect 0 0 89 0;
#X connect 1 0 87 0;
#X connect 2 0 90 0;
#X connect 3 0 87 0;
#X connect 4 0 5 0;
#X connect 5 0 0 0;
#X connect 6 0 10 0;
#X connect 6 0 16 0;
#X connect 7 0 12 0;
#X connect 7 0 13 1;
#X connect 7 0 49 1;
#X connect 8 0 7 1;
#X connect 12 0 7 1;
#X connect 12 0 15 1;
#X connect 14 0 13 0;
#X connect 15 0 35 0;
#X connect 17 0 29 0;
#X connect 17 1 18 0;
#X connect 17 2 93 0;
#X connect 18 0 19 0;
#X connect 18 1 22 0;
#X connect 19 0 20 0;
#X connect 20 0 21 0;
#X connect 20 0 36 0;
#X connect 21 0 20 1;
#X connect 22 0 20 1;
#X connect 23 0 37 2;
#X connect 25 0 37 0;
#X connect 27 0 25 0;
#X connect 29 0 81 0;
#X connect 30 0 50 0;
#X connect 32 0 33 0;
#X connect 33 0 38 0;
#X connect 34 0 39 0;
#X connect 35 1 17 0;
#X connect 36 0 27 0;
#X connect 36 1 37 1;
#X connect 36 2 23 0;
#X connect 37 0 82 0;
#X connect 42 0 43 0;
#X connect 44 0 42 0;
#X connect 45 0 94 0;
#X connect 46 0 47 0;
#X connect 48 0 49 0;
#X connect 50 0 31 0;
#X connect 50 1 52 0;
#X connect 50 2 34 0;
#X connect 50 3 32 0;
#X connect 52 0 51 0;
#X connect 53 0 54 0;
#X connect 54 0 57 0;
#X connect 55 0 58 0;
#X connect 57 0 60 0;
#X connect 57 1 55 0;
#X connect 58 0 56 0;
#X connect 58 1 61 0;
#X connect 60 0 67 0;
#X connect 61 0 62 0;
#X connect 62 0 60 1;
#X connect 62 1 59 0;
#X connect 63 0 64 0;
#X connect 64 0 65 0;
#X connect 64 0 78 0;
#X connect 65 0 64 1;
#X connect 66 0 64 1;
#X connect 67 0 70 0;
#X connect 67 1 63 0;
#X connect 67 2 66 0;
#X connect 68 0 70 1;
#X connect 69 0 68 1;
#X connect 70 0 72 0;
#X connect 71 0 75 0;
#X connect 72 0 71 0;
#X connect 75 0 79 0;
#X connect 77 0 69 0;
#X connect 78 0 68 0;
#X connect 78 1 77 0;
#X connect 81 0 28 0;
#X connect 81 1 80 0;
#X connect 82 0 24 0;
#X connect 83 0 11 0;
#X connect 84 0 83 0;
#X connect 86 0 15 1;
#X connect 87 0 2 0;
#X connect 88 0 14 0;
#X connect 88 1 48 0;
#X connect 89 0 91 0;
#X connect 89 1 88 0;
#X connect 89 2 92 0;
#X connect 90 0 0 0;
#X connect 90 1 86 0;
#X connect 90 2 8 0;
#X connect 90 3 6 0;
#X connect 90 3 46 0;
#X connect 91 0 15 0;
#X connect 92 0 4 0;
#X connect 92 1 84 0;
#X connect 92 2 7 0;
#X connect 94 0 46 0;
#X connect 94 1 6 0;
#X restore 100 283 pd \$0-search;
#N canvas 3 3 311 557 \$0-plugins 0;
#X restore 100 260 pd \$0-plugins;
#X connect 8 0 9 0;
#X coords 0 -1 1 1 180 150 2 100 100;
